<?xml version="1.0" encoding="utf-8"?>
<!-- Generator: Adobe Illustrator 22.1.0, SVG Export Plug-In . SVG Version: 6.00 Build 0)  -->
<svg version="1.1" xmlns="http://www.w3.org/2000/svg" xmlns:xlink="http://www.w3.org/1999/xlink" x="0px" y="0px"
	 viewBox="0 0 500 500" style="enable-background:new 0 0 500 500;" xml:space="preserve">
<style type="text/css">
	.st0{display:none;}
	.st1{display:inline;fill:none;stroke:#000000;stroke-miterlimit:10;}
	.st2{display:inline;fill:#26011C;}
	.st3{display:inline;}
	.st4{fill:#26011C;}
	.st5{display:inline;fill:#26011C;stroke:#FFFFFF;stroke-miterlimit:10;}
</style>
<g id="cuadro" class="st0">
	<path class="st1" d="M91,14h318.3c44.2,0,80,35.8,80,80v304c0,44.2-35.8,80-80,80H91c-44.2,0-80-35.8-80-80V94
		C11,49.8,46.8,14,91,14z"/>
</g>
<g id="typescript" class="st0">
	<path class="st2" d="M445.8,9.1H55.1C29.9,9.1,9.5,29.5,9.5,54.6v390.7c0,25.2,20.4,45.6,45.6,45.6h390.7
		c25.2,0,45.6-20.4,45.6-45.6V54.6C491.3,29.5,470.9,9.1,445.8,9.1z M288.3,275.3h-59.6v174.1h-48.4V275.3h-59.9v-38.8h167.8V275.3z
		 M451.7,395.8c-4.1,35.5-28.1,50.8-69.7,55.5c-41.6,4.7-74.4-11.8-74.4-11.8v-47c0,0,14.9,14.5,45.3,20.6
		c30.5,6.1,48.4-7.4,48.4-17.6c0-10.2-3.4-23-34.5-33.8c-31.1-10.8-42.3-24.4-47.7-29.8c-5.4-5.4-30.8-48.7,10.5-81.9
		s113-9.1,113-9.1v44.7c-29.8-20.6-72.4-17.9-83.2-2.4c-10.8,15.6,9.1,32.8,40.3,42S455.8,360.3,451.7,395.8z"/>
</g>
<g id="indesing" class="st0">
	<g class="st3">
		<path class="st4" d="M398.5,14.4H99.5C48.9,14.4,8,55.3,8,105.8v288.3c0,50.5,40.9,91.5,91.5,91.5h299.1
			c50.5,0,91.5-40.9,91.5-91.5V105.8C490,55.3,449.1,14.4,398.5,14.4z M184.5,342.4c0,2.7-2.2,5-5,5H143c-2.7,0-5-2.2-5-5V140.9
			c0-2.7,2.2-5,5-5h36.6c2.7,0,5,2.2,5,5V342.4z M364.6,199.7v134.4c0,0.8-0.2,1.5-0.7,2.2c-0.6,0.9-1.7,1.6-2.8,1.7
			c-14.8,8.4-32.5,13.4-51.5,13.4c-52.5,0-95-37.4-95-83.6s42.5-83.6,95-83.6c3.1,0,6.1,0.1,9.1,0.4v-62.2c0-2.1,1.7-3.9,3.9-3.9
			h38.1c2.1,0,3.9,1.7,3.9,3.9V199.7z"/>
		<path class="st4" d="M261.2,267.2c0,25.3,20.5,45.7,45.7,45.7c4.1,0,8-0.5,11.8-1.5V223c-3.8-1-7.7-1.5-11.8-1.5
			C281.7,221.5,261.2,242,261.2,267.2z"/>
	</g>
</g>
<g id="photoshop" class="st0">
	<g class="st3">
		<path class="st4" d="M405,15.3H95.7c-46.6,0-84.3,37.8-84.3,84.3v296c0,46.6,37.8,84.3,84.3,84.3H405c46.6,0,84.3-37.8,84.3-84.3
			v-296C489.3,53.1,451.6,15.3,405,15.3z M268.7,205.7c0,39.9-32.4,72.3-72.3,72.3h-33.7v66h-43.3V133.3H153h9.7h33.7
			C236.3,133.3,268.7,165.7,268.7,205.7L268.7,205.7z M406,303c-1.5,21.8-20.8,43.5-60.3,45.3c-29.4,1.3-45.5-5.4-51.8-9
			c-2-1.1-3.2-3.1-3.2-5.4v-33.4c0-1.2,1.2-2,2.3-1.5c6,2.7,22.3,9.8,29.7,11.2c9.3,1.8,36.5,6,40-7.8s-30-18.5-50.3-32
			s-23.8-30.3-20.5-48.3s23-39.5,57.8-39.5c24.6,0,38.4,3.1,44.4,5c2.2,0.7,3.6,2.7,3.6,4.9v32.9c0,2.2-2.4,3.5-4.2,2.4
			c-4.6-2.7-13.1-6.6-26.8-8.7c-22.5-3.5-31-0.8-34,5.8s0.3,13,32.8,25S407.5,281.3,406,303z"/>
		<path class="st4" d="M191.9,172.3h-29.2v68.3h29.2c18.8,0,34.1-15.3,34.1-34.1v0C226,187.5,210.7,172.3,191.9,172.3z"/>
	</g>
</g>
<g id="illustrator" class="st0">
	<g class="st3">
		<polygon class="st4" points="183,250 228.7,250 205.8,170.7 		"/>
		<path class="st4" d="M409.3,14H91c-44.2,0-80,35.8-80,80v304c0,44.2,35.8,80,80,80h318.3c44.2,0,80-35.8,80-80V94
			C489.3,49.8,453.5,14,409.3,14z M259.3,343l-18.5-49.5H170L152.5,343H106l71.5-211.5H232L308.5,343H259.3z M374,343h-49.3V181.7
			H374V343z M349.3,170.3c-15.3,0-27.7-12.4-27.7-27.7c0-15.3,12.4-27.7,27.7-27.7c15.3,0,27.7,12.4,27.7,27.7
			C377,157.9,364.6,170.3,349.3,170.3z"/>
	</g>
</g>
<g id="jquery" class="st0">
	<path class="st2" d="M436.2,35.9h-372C34.8,35.9,11,59.4,11,88.4V246c0,116,95.2,210.1,212.6,210.1h53.2
		c117.4,0,212.6-94.1,212.6-210.1V88.4C489.3,59.4,465.5,35.9,436.2,35.9z M250.2,377.3c-88.1,0-159.5-70.6-159.5-157.6v-78.8h79.7
		v78.8c0,43.5,35.7,78.8,79.7,78.8c44,0,79.7-35.3,79.7-78.8h79.7C409.6,306.8,338.2,377.3,250.2,377.3z M408.3,193.5l-77.1-19.7
		l18.6-76.2l0,0l78.4,19.7L408.3,193.5z"/>
</g>
<g id="xd" class="st0">
	<g class="st3">
		<path class="st4" d="M363.2,228.4c-7.9,0-15.7,1.6-22.8,5.2c-6.9,3.4-12.7,8.5-17.1,14.9c-4.4,6.4-6.7,15.1-6.7,25.6
			c-0.2,7.1,1,14.1,3.4,20.8c2,5.4,5,10.3,9.1,14.3c3.8,3.6,8.5,6.4,13.7,8.1c5.4,1.8,11.1,2.6,16.7,2.6c3,0,5.8-0.2,8.5-0.4
			c2.6,0.2,4.8-0.2,7.3-1v0v-88.7c-1.8-0.4-3.6-0.8-5.4-1C367.6,228.6,365.4,228.4,363.2,228.4z"/>
		<path class="st4" d="M403.7,14H96.3c-46.6,0-84.3,37.7-84.3,84.3v295.5c0,46.6,37.7,84.3,84.3,84.3h307.4
			c46.6,0,84.3-37.7,84.3-84.3V98.3C487.9,51.7,450.3,14,403.7,14z M266.9,354.2c-0.2,0.8-1,0.2-2.2,0.4h-46.1
			c-3.2,0-5.4-0.2-6.9-2.2c-4.2-8.5-8.7-16.7-12.9-25.2c-4.2-8.3-8.9-16.7-13.7-25.4c-4.8-8.7-9.7-17.3-14.5-26.2h-0.4
			c-4.2,8.7-8.9,17.3-13.5,26c-4.6,8.7-9.3,17.3-13.7,25.8c-4.6,8.5-9.3,17.1-13.9,25.4c-0.8,2-2.4,2.2-4.6,2.2H80.1
			c-0.8,0-1.4,0.4-1.4-0.6c-0.2-0.8,0-1.6,0.4-2.2l62.7-102.8L80.7,146c-0.6-0.8-0.8-1.6-0.4-2c0.4-0.6,1.2-0.8,2-0.8H128
			c1,0,2,0.2,2.8,0.4c0.8,0.4,1.4,1,2,1.8c3.8,8.7,8.3,17.3,12.9,26c4.8,8.7,9.5,17.1,14.5,25.6c4.8,8.5,9.3,16.9,13.5,25.6h0.4
			c4.2-8.9,8.7-17.5,13.1-26c4.4-8.5,9.1-16.9,13.7-25.4c4.6-8.5,9.1-17.1,13.5-25.4c0.2-0.8,0.6-1.6,1.2-2c0.8-0.4,1.6-0.6,2.6-0.4
			h42.5c1-0.2,2,0.4,2.2,1.4c0.2,0.2-0.2,1-0.6,1.4L202,246l64.5,105.8C266.9,352.6,267.1,353.4,266.9,354.2z M419.4,346.3
			c-10.5,4.4-21.6,7.7-32.8,9.7c-10.3,1.8-20.6,2.8-31,2.8c-14.9,0.2-29.8-2.8-43.3-9.1c-12.7-5.8-23.2-15.5-30.4-27.4
			c-7.5-12.3-11.1-27.6-11.1-45.9c-0.2-14.9,3.6-29.6,11.1-42.5c7.7-13.1,18.7-24,32-31.2c14.1-7.9,31-11.7,51-11.7
			c1,0,2.4,0,4.2,0.2c1.8,0.2,3.8,0.2,6.2,0.4v-63.7c0-1.4,0.6-2.2,2-2.2h40.9c1-0.2,1.8,0.6,2,1.4v192.2c0,3.6,0.2,7.7,0.4,12.1
			c0.4,4.2,0.6,8.3,0.8,11.7C421.4,344.5,420.8,345.7,419.4,346.3z"/>
	</g>
</g>
<g id="figma" class="st0">
	<path class="st5" d="M172.7,478c42.7,0,77.3-34.6,77.3-77.3v-77.3h-77.3c-42.7,0-77.3,34.6-77.3,77.3S130,478,172.7,478z"/>
	<path class="st5" d="M95.3,246c0-42.7,34.6-77.3,77.3-77.3H250v154.7h-77.3C130,323.3,95.3,288.7,95.3,246z"/>
	<path class="st5" d="M95.3,91.3C95.3,48.6,130,14,172.7,14H250v154.7h-77.3C130,168.7,95.3,134,95.3,91.3z"/>
	<path class="st5" d="M250,14h77.3c42.7,0,77.3,34.6,77.3,77.3s-34.6,77.3-77.3,77.3H250V14z"/>
	<path class="st5" d="M404.7,246c0,42.7-34.6,77.3-77.3,77.3S250,288.7,250,246s34.6-77.3,77.3-77.3S404.7,203.3,404.7,246z"/>
</g>
<g id="node" class="st0">
	<path class="st2" d="M249.1,382.2c-1.6,0-3.2-0.5-4.6-1.2l-14.6-8.6c-2.2-1.2-1.1-1.7-0.4-1.9c2.9-1,3.5-1.2,6.6-3
		c0.3-0.2,0.8-0.1,1.1,0.1l11.2,6.7c0.4,0.2,1,0.2,1.4,0l43.9-25.3c0.4-0.2,0.7-0.7,0.7-1.2V297c0-0.5-0.2-1-0.7-1.2l-43.9-25.3
		c-0.4-0.2-0.9-0.2-1.4,0l-43.9,25.3c-0.5,0.2-0.7,0.8-0.7,1.2v50.6c0,0.5,0.3,0.9,0.7,1.1l12,6.9c6.5,3.3,10.5-0.6,10.5-4.4v-50
		c0-0.7,0.5-1.3,1.3-1.3h5.5c0.7,0,1.3,0.5,1.3,1.3v50c0,8.7-4.7,13.7-13,13.7c-2.5,0-4.6,0-10.1-2.7l-11.5-6.6
		c-2.8-1.7-4.6-4.7-4.6-8V297c0-3.3,1.7-6.4,4.6-8l43.9-25.3c2.8-1.6,6.4-1.6,9.2,0l43.9,25.3c2.8,1.7,4.6,4.7,4.6,8v50.6
		c0,3.3-1.7,6.4-4.6,8l-43.9,25.3C252.3,381.7,250.7,382.2,249.1,382.2L249.1,382.2z M284.5,332.3c0-9.5-6.4-12-19.9-13.8
		c-13.7-1.8-15-2.7-15-5.9c0-2.7,1.1-6.1,11.2-6.1c9,0,12.4,2,13.7,8c0.2,0.6,0.6,1,1.2,1h5.7c0.4,0,0.7-0.2,0.9-0.4
		c0.2-0.3,0.4-0.6,0.3-1c-0.9-10.5-7.8-15.3-21.9-15.3c-12.5,0-20,5.3-20,14.1c0,9.6,7.4,12.2,19.4,13.4c14.3,1.4,15.5,3.5,15.5,6.3
		c0,4.9-3.9,7-13.2,7c-11.6,0-14.2-2.9-15-8.6c-0.1-0.6-0.6-1.1-1.3-1.1h-5.7c-0.7,0-1.3,0.5-1.3,1.3c0,7.4,4,16.2,23.2,16.2
		C276.5,347.3,284.5,341.8,284.5,332.3L284.5,332.3z M325.9,294.3c0,4.6-3.8,8.4-8.4,8.4c-4.6,0-8.4-3.8-8.4-8.4
		c0-4.8,3.9-8.4,8.4-8.4C322,285.8,325.9,289.5,325.9,294.3z M324.5,294.3c0-3.9-3.2-7.1-7.1-7.1c-3.9,0-7.1,3.1-7.1,7.1
		c0,3.9,3.2,7.1,7.1,7.1C321.3,301.3,324.5,298.1,324.5,294.3z M321.1,299h-2c-0.1-0.5-0.4-2.9-0.4-3c-0.2-0.5-0.3-0.8-1-0.8h-1.7
		v3.8h-1.8v-9.5h3.3c1.1,0,3.3,0,3.3,2.5c0,1.7-1.1,2.1-1.8,2.4c1.3,0.1,1.4,0.9,1.6,2.1C320.7,297.2,320.8,298.5,321.1,299
		L321.1,299z M319,292.3c0-1.3-0.9-1.3-1.4-1.3h-1.5v2.7h1.4C318.7,293.7,319,292.8,319,292.3z M113.3,184.2c0-2-1.1-3.9-2.8-4.9
		L64,152.5c-0.8-0.5-1.7-0.7-2.6-0.8h-0.5c-0.9,0-1.7,0.3-2.6,0.8l-46.4,26.8c-1.7,1-2.8,2.9-2.8,4.9l0.1,72.1c0,1,0.5,1.9,1.4,2.4
		c0.8,0.5,1.9,0.5,2.8,0L41,242.8c1.7-1.1,2.8-2.9,2.8-4.9v-33.7c0-2,1.1-3.9,2.8-4.9l11.8-6.8c0.9-0.5,1.8-0.8,2.8-0.8
		c1,0,2,0.2,2.8,0.8l11.8,6.8c1.7,1,2.8,2.9,2.8,4.9V238c0,2,1.1,3.9,2.8,4.9l27.6,15.9c0.8,0.5,2,0.5,2.8,0
		c0.8-0.5,1.4-1.4,1.4-2.4L113.3,184.2L113.3,184.2z M367.6,105.5v133.8c0,2-1.1,3.9-2.8,4.9l-46.5,26.9c-1.7,1-3.9,1-5.6,0
		l-46.5-26.9c-1.7-1-2.8-2.9-2.8-4.9v-53.7c0-2,1.1-3.9,2.8-4.9l46.5-26.9c1.7-1,3.9-1,5.6,0l11.6,6.7c1.3,0.8,3-0.2,3-1.7V87.6
		c0-2.1,2.3-3.5,4.2-2.4l27.7,15.5C366.4,101.6,367.6,103.5,367.6,105.5L367.6,105.5z M332.7,203.3c0-0.5-0.3-1-0.7-1.2l-15.9-9.3
		c-0.5-0.2-1-0.2-1.4,0l-15.9,9.3c-0.5,0.2-0.7,0.7-0.7,1.2v18.4c0,0.5,0.3,1,0.7,1.2l15.9,9.2c0.5,0.2,1,0.2,1.4,0l15.9-9.2
		c0.5-0.2,0.7-0.7,0.7-1.2L332.7,203.3L332.7,203.3z M491.9,202.8c1.7-1,2.8-2.9,2.8-4.9v-13c0-2-1.1-3.9-2.8-4.9l-46.2-26.9
		c-1.7-1-3.9-1-5.6,0l-46.5,26.9c-1.7,1-2.8,2.9-2.8,4.9v53.7c0,2,1.1,3.9,2.8,4.9l46.2,26.3c1.7,1,3.8,1,5.5,0l27.9-15.6
		c1.9-1.1,1.9-3.8,0-4.9l-46.8-26.9c-0.9-0.5-1.4-1.4-1.4-2.4v-16.8c0-1,0.5-1.9,1.4-2.4l14.6-8.4c0.8-0.5,2-0.5,2.8,0l14.6,8.4
		c0.8,0.5,1.4,1.4,1.4,2.4v13.2c0,2.1,2.4,3.5,4.2,2.4L491.9,202.8L491.9,202.8z M433.2,205.4c-0.3,0.2-0.5,0.5-0.5,0.9v10.3
		c0,0.4,0.2,0.8,0.5,0.9l9,5.2c0.3,0.2,0.8,0.2,1.1,0l9-5.2c0.3-0.2,0.5-0.5,0.5-0.9v-10.3c0-0.4-0.2-0.8-0.5-0.9l-9-5.2
		c-0.3-0.2-0.8-0.2-1.1,0L433.2,205.4z M240.4,238.4V185c0-2-1.2-3.9-3-4.9L191,153.5c-1.6-0.9-3.8-1.1-5.6,0l-46.4,26.7
		c-1.7,1-3,2.8-3,4.9v53.4c0,2.1,1.4,3.9,3,4.9l46.4,26.7c1.8,1.1,3.9,1,5.6,0l46.3-26.7c1.4-0.8,2.4-2,2.7-3.6
		C240.3,239.3,240.4,238.9,240.4,238.4L240.4,238.4z M184,143.7l-0.6,0.4h0.8L184,143.7z M241.8,242.5l-0.3-0.5v0.7L241.8,242.5
		L241.8,242.5z"/>
</g>
<g id="github" class="st0">
	<path class="st2" d="M172,394.7c0,2-2.3,3.5-5.1,3.5c-3.2,0.3-5.5-1.3-5.5-3.5c0-2,2.3-3.5,5.1-3.5
		C169.5,390.8,172,392.4,172,394.7z M141.5,390.3c-0.7,2,1.3,4.2,4.2,4.8c2.6,1,5.5,0,6.1-2s-1.3-4.2-4.2-5.1
		C145,387.3,142.2,388.3,141.5,390.3L141.5,390.3z M184.9,388.6c-2.8,0.7-4.8,2.6-4.5,4.8c0.3,2,2.8,3.2,5.8,2.6
		c2.8-0.7,4.8-2.6,4.5-4.5C190.4,389.6,187.7,388.3,184.9,388.6z M249.4,12.5C113.3,12.5,9.2,115.8,9.2,252
		c0,108.8,68.5,202,166.4,234.8c12.6,2.3,17-5.5,17-11.9c0-6.1-0.3-39.7-0.3-60.3c0,0-68.7,14.7-83.1-29.2c0,0-11.2-28.6-27.3-35.9
		c0,0-22.5-15.4,1.6-15.1c0,0,24.4,2,37.9,25.3c21.5,37.9,57.5,27,71.6,20.5c2.3-15.7,8.6-26.6,15.7-33.1
		C153.6,341,98.3,333,98.3,238.6c0-27,7.5-40.5,23.2-57.8c-2.6-6.4-10.9-32.7,2.6-66.6c20.5-6.4,67.7,26.5,67.7,26.5
		c19.6-5.5,40.7-8.3,61.6-8.3s42,2.8,61.6,8.3c0,0,47.2-33,67.7-26.5c13.4,34.1,5.1,60.3,2.6,66.6c15.7,17.4,25.3,30.9,25.3,57.8
		c0,94.7-57.8,102.3-112.7,108.5c9,7.8,16.7,22.5,16.7,45.5c0,33.1-0.3,74-0.3,82.1c0,6.4,4.5,14.1,17,11.9
		C429.5,454,496,360.8,496,252C496,115.8,385.6,12.5,249.4,12.5z M104.6,351c-1.3,1-1,3.2,0.7,5.1c1.6,1.6,3.8,2.3,5.1,1
		c1.3-1,1-3.2-0.7-5.1C108.1,350.4,105.9,349.7,104.6,351z M94,343c-0.7,1.3,0.3,2.8,2.3,3.8c1.6,1,3.5,0.7,4.2-0.7
		c0.7-1.3-0.3-2.8-2.3-3.8C96.2,341.8,94.7,342.1,94,343z M125.8,378c-1.6,1.3-1,4.2,1.3,6.1c2.3,2.3,5.1,2.6,6.4,1
		c1.3-1.3,0.7-4.2-1.3-6.1C130,376.7,127.1,376.4,125.8,378z M114.6,363.6c-1.6,1-1.6,3.5,0,5.8c1.6,2.3,4.2,3.2,5.5,2.3
		c1.6-1.3,1.6-3.8,0-6.1C118.7,363.3,116.2,362.3,114.6,363.6L114.6,363.6z"/>
</g>
<g id="javascript" class="st0">
	<path class="st2" d="M15.3,12.5v474.7h474.7V12.5H15.3z M273.6,382.7c0,46.2-27.1,67.3-66.6,67.3c-35.7,0-56.4-18.4-67-40.8
		l36.3-21.9c7,12.4,13.3,22.9,28.7,22.9c14.6,0,23.9-5.7,23.9-28.1V230.4h44.6V382.7L273.6,382.7z M379.1,449.9
		c-41.4,0-68.2-19.7-81.3-45.6l36.3-21c9.5,15.6,22,27.1,44,27.1c18.4,0,30.3-9.2,30.3-22c0-15.3-12.1-20.7-32.5-29.7l-11.1-4.8
		c-32.2-13.7-53.5-30.9-53.5-67.3c0-33.5,25.5-58.9,65.3-58.9c28.4,0,48.7,9.9,63.4,35.7l-34.8,22.2c-7.6-13.7-15.9-19.1-28.7-19.1
		c-13,0-21.3,8.3-21.3,19.1c0,13.3,8.3,18.8,27.4,27.1l11.1,4.8c37.9,16.2,59.2,32.8,59.2,70.1C452.9,427.9,421.4,449.9,379.1,449.9
		L379.1,449.9z"/>
</g>
<g id="css3">
	<path class="st4" d="M49.2,12.5l37,419.4l166.5,55.3L419,431.8l37-419.4H49.2z M380.9,97.2l-5.1,50.1l-122.2,52.2l-0.3,0.1h118.1
		L357.9,355l-104,30.4l-104.7-30.9l-6.8-78.3h51.8l3.4,40.6l55.7,14.1l58-16.3l3.9-65.3L139,248.7v-0.1l-0.2,0.1l-3.8-49.1
		l118.8-49.5l6.9-2.9H130.4l-6.1-50.1H380.9z"/>
</g>
</svg>
