<?xml version="1.0" encoding="utf-8"?>
<!-- Generator: Adobe Illustrator 22.1.0, SVG Export Plug-In . SVG Version: 6.00 Build 0)  -->
<svg version="1.1" xmlns="http://www.w3.org/2000/svg" xmlns:xlink="http://www.w3.org/1999/xlink" x="0px" y="0px"
	 viewBox="0 0 500 500" style="enable-background:new 0 0 500 500;" xml:space="preserve">
<style type="text/css">
	.st0{display:none;}
	.st1{display:inline;fill:none;stroke:#000000;stroke-miterlimit:10;}
	.st2{display:inline;}
	.st3{fill:#26011C;}
	.st4{display:inline;fill:#26011C;}
	.st5{display:inline;fill:#26011C;stroke:#FFFFFF;stroke-miterlimit:10;}
</style>
<g id="cuadro" class="st0">
	<path class="st1" d="M91,14h318.3c44.2,0,80,35.8,80,80v304c0,44.2-35.8,80-80,80H91c-44.2,0-80-35.8-80-80V94
		C11,49.8,46.8,14,91,14z"/>
</g>
<g id="typescript" class="st0">
	<path class="st2" d="M445.8,9.1H55.1C29.9,9.1,9.5,29.5,9.5,54.6v390.7c0,25.2,20.4,45.6,45.6,45.6h390.7
		c25.2,0,45.6-20.4,45.6-45.6V54.6C491.3,29.5,470.9,9.1,445.8,9.1z M288.3,275.3h-59.6v174.1h-48.4V275.3h-59.9v-38.8h167.8V275.3z
		 M451.7,395.8c-4.1,35.5-28.1,50.8-69.7,55.5c-41.6,4.7-74.4-11.8-74.4-11.8v-47c0,0,14.9,14.5,45.3,20.6
		c30.5,6.1,48.4-7.4,48.4-17.6c0-10.2-3.4-23-34.5-33.8c-31.1-10.8-42.3-24.4-47.7-29.8c-5.4-5.4-30.8-48.7,10.5-81.9
		s113-9.1,113-9.1v44.7c-29.8-20.6-72.4-17.9-83.2-2.4c-10.8,15.6,9.1,32.8,40.3,42S455.8,360.3,451.7,395.8z"/>
</g>
<g id="indesing" class="st0">
	<g class="st2">
		<path d="M398.5,14.4H99.5C48.9,14.4,8,55.3,8,105.8v288.3c0,50.5,40.9,91.5,91.5,91.5h299.1c50.5,0,91.5-40.9,91.5-91.5V105.8
			C490,55.3,449.1,14.4,398.5,14.4z M184.5,342.4c0,2.7-2.2,5-5,5H143c-2.7,0-5-2.2-5-5V140.9c0-2.7,2.2-5,5-5h36.6c2.7,0,5,2.2,5,5
			V342.4z M364.6,199.7v134.4c0,0.8-0.2,1.5-0.7,2.2c-0.6,0.9-1.7,1.6-2.8,1.7c-14.8,8.4-32.5,13.4-51.5,13.4
			c-52.5,0-95-37.4-95-83.6s42.5-83.6,95-83.6c3.1,0,6.1,0.1,9.1,0.4v-62.2c0-2.1,1.7-3.9,3.9-3.9h38.1c2.1,0,3.9,1.7,3.9,3.9V199.7
			z"/>
		<path d="M261.2,267.2c0,25.3,20.5,45.7,45.7,45.7c4.1,0,8-0.5,11.8-1.5V223c-3.8-1-7.7-1.5-11.8-1.5
			C281.7,221.5,261.2,242,261.2,267.2z"/>
	</g>
</g>
<g id="photoshop" class="st0">
	<g class="st2">
		<path d="M405,15.3H95.7c-46.6,0-84.3,37.8-84.3,84.3v296c0,46.6,37.8,84.3,84.3,84.3H405c46.6,0,84.3-37.8,84.3-84.3v-296
			C489.3,53.1,451.6,15.3,405,15.3z M268.7,205.7c0,39.9-32.4,72.3-72.3,72.3h-33.7v66h-43.3V133.3H153h9.7h33.7
			C236.3,133.3,268.7,165.7,268.7,205.7L268.7,205.7z M406,303c-1.5,21.8-20.8,43.5-60.3,45.3c-29.4,1.3-45.5-5.4-51.8-9
			c-2-1.1-3.2-3.1-3.2-5.4v-33.4c0-1.2,1.2-2,2.3-1.5c6,2.7,22.3,9.8,29.7,11.2c9.3,1.8,36.5,6,40-7.8s-30-18.5-50.3-32
			s-23.8-30.3-20.5-48.3s23-39.5,57.8-39.5c24.6,0,38.4,3.1,44.4,5c2.2,0.7,3.6,2.7,3.6,4.9v32.9c0,2.2-2.4,3.5-4.2,2.4
			c-4.6-2.7-13.1-6.6-26.8-8.7c-22.5-3.5-31-0.8-34,5.8s0.3,13,32.8,25S407.5,281.3,406,303z"/>
		<path d="M191.9,172.3h-29.2v68.3h29.2c18.8,0,34.1-15.3,34.1-34.1v0C226,187.5,210.7,172.3,191.9,172.3z"/>
	</g>
</g>
<g id="illustrator">
	<g>
		<polygon class="st3" points="183,250 228.7,250 205.8,170.7 		"/>
		<path class="st3" d="M409.3,14H91c-44.2,0-80,35.8-80,80v304c0,44.2,35.8,80,80,80h318.3c44.2,0,80-35.8,80-80V94
			C489.3,49.8,453.5,14,409.3,14z M259.3,343l-18.5-49.5H170L152.5,343H106l71.5-211.5H232L308.5,343H259.3z M374,343h-49.3V181.7
			H374V343z M349.3,170.3c-15.3,0-27.7-12.4-27.7-27.7c0-15.3,12.4-27.7,27.7-27.7c15.3,0,27.7,12.4,27.7,27.7
			C377,157.9,364.6,170.3,349.3,170.3z"/>
	</g>
</g>
<g id="jquery" class="st0">
	<path class="st4" d="M436.2,35.9h-372C34.8,35.9,11,59.4,11,88.4V246c0,116,95.2,210.1,212.6,210.1h53.2
		c117.4,0,212.6-94.1,212.6-210.1V88.4C489.3,59.4,465.5,35.9,436.2,35.9z M250.2,377.3c-88.1,0-159.5-70.6-159.5-157.6v-78.8h79.7
		v78.8c0,43.5,35.7,78.8,79.7,78.8c44,0,79.7-35.3,79.7-78.8h79.7C409.6,306.8,338.2,377.3,250.2,377.3z M408.3,193.5l-77.1-19.7
		l18.6-76.2l0,0l78.4,19.7L408.3,193.5z"/>
</g>
<g id="xd" class="st0">
	<g class="st2">
		<path class="st3" d="M363.2,228.4c-7.9,0-15.7,1.6-22.8,5.2c-6.9,3.4-12.7,8.5-17.1,14.9c-4.4,6.4-6.7,15.1-6.7,25.6
			c-0.2,7.1,1,14.1,3.4,20.8c2,5.4,5,10.3,9.1,14.3c3.8,3.6,8.5,6.4,13.7,8.1c5.4,1.8,11.1,2.6,16.7,2.6c3,0,5.8-0.2,8.5-0.4
			c2.6,0.2,4.8-0.2,7.3-1v0v-88.7c-1.8-0.4-3.6-0.8-5.4-1C367.6,228.6,365.4,228.4,363.2,228.4z"/>
		<path class="st3" d="M403.7,14H96.3c-46.6,0-84.3,37.7-84.3,84.3v295.5c0,46.6,37.7,84.3,84.3,84.3h307.4
			c46.6,0,84.3-37.7,84.3-84.3V98.3C487.9,51.7,450.3,14,403.7,14z M266.9,354.2c-0.2,0.8-1,0.2-2.2,0.4h-46.1
			c-3.2,0-5.4-0.2-6.9-2.2c-4.2-8.5-8.7-16.7-12.9-25.2c-4.2-8.3-8.9-16.7-13.7-25.4c-4.8-8.7-9.7-17.3-14.5-26.2h-0.4
			c-4.2,8.7-8.9,17.3-13.5,26c-4.6,8.7-9.3,17.3-13.7,25.8c-4.6,8.5-9.3,17.1-13.9,25.4c-0.8,2-2.4,2.2-4.6,2.2H80.1
			c-0.8,0-1.4,0.4-1.4-0.6c-0.2-0.8,0-1.6,0.4-2.2l62.7-102.8L80.7,146c-0.6-0.8-0.8-1.6-0.4-2c0.4-0.6,1.2-0.8,2-0.8H128
			c1,0,2,0.2,2.8,0.4c0.8,0.4,1.4,1,2,1.8c3.8,8.7,8.3,17.3,12.9,26c4.8,8.7,9.5,17.1,14.5,25.6c4.8,8.5,9.3,16.9,13.5,25.6h0.4
			c4.2-8.9,8.7-17.5,13.1-26c4.4-8.5,9.1-16.9,13.7-25.4c4.6-8.5,9.1-17.1,13.5-25.4c0.2-0.8,0.6-1.6,1.2-2c0.8-0.4,1.6-0.6,2.6-0.4
			h42.5c1-0.2,2,0.4,2.2,1.4c0.2,0.2-0.2,1-0.6,1.4L202,246l64.5,105.8C266.9,352.6,267.1,353.4,266.9,354.2z M419.4,346.3
			c-10.5,4.4-21.6,7.7-32.8,9.7c-10.3,1.8-20.6,2.8-31,2.8c-14.9,0.2-29.8-2.8-43.3-9.1c-12.7-5.8-23.2-15.5-30.4-27.4
			c-7.5-12.3-11.1-27.6-11.1-45.9c-0.2-14.9,3.6-29.6,11.1-42.5c7.7-13.1,18.7-24,32-31.2c14.1-7.9,31-11.7,51-11.7
			c1,0,2.4,0,4.2,0.2c1.8,0.2,3.8,0.2,6.2,0.4v-63.7c0-1.4,0.6-2.2,2-2.2h40.9c1-0.2,1.8,0.6,2,1.4v192.2c0,3.6,0.2,7.7,0.4,12.1
			c0.4,4.2,0.6,8.3,0.8,11.7C421.4,344.5,420.8,345.7,419.4,346.3z"/>
	</g>
</g>
<g id="figma" class="st0">
	<path class="st5" d="M172.7,478c42.7,0,77.3-34.6,77.3-77.3v-77.3h-77.3c-42.7,0-77.3,34.6-77.3,77.3S130,478,172.7,478z"/>
	<path class="st5" d="M95.3,246c0-42.7,34.6-77.3,77.3-77.3H250v154.7h-77.3C130,323.3,95.3,288.7,95.3,246z"/>
	<path class="st5" d="M95.3,91.3C95.3,48.6,130,14,172.7,14H250v154.7h-77.3C130,168.7,95.3,134,95.3,91.3z"/>
	<path class="st5" d="M250,14h77.3c42.7,0,77.3,34.6,77.3,77.3s-34.6,77.3-77.3,77.3H250V14z"/>
	<path class="st5" d="M404.7,246c0,42.7-34.6,77.3-77.3,77.3S250,288.7,250,246s34.6-77.3,77.3-77.3S404.7,203.3,404.7,246z"/>
</g>
</svg>
