<?xml version="1.0" encoding="utf-8"?>
<!-- Generator: Adobe Illustrator 22.1.0, SVG Export Plug-In . SVG Version: 6.00 Build 0)  -->
<svg version="1.1" id="Layer_1" xmlns="http://www.w3.org/2000/svg" xmlns:xlink="http://www.w3.org/1999/xlink" x="0px" y="0px"
	 viewBox="0 0 720 500" style="enable-background:new 0 0 720 500;" xml:space="preserve">
<style type="text/css">
	.st0{opacity:0.7;}
	.st1{fill:#FFFFFF;}
</style>
<g class="st0">
	
		<image style="overflow:visible;enable-background:new    ;" width="713" height="1146" xlink:href="3ECC4FB4.png"  transform="matrix(0.238 0 0 0.238 274.8 82.8773)">
	</image>
</g>
<g class="st0">
	
		<image style="overflow:visible;enable-background:new    ;" width="813" height="1146" xlink:href="3ECC4FB5.png"  transform="matrix(0.2394 0 0 0.2394 155.04 95.2583)">
	</image>
</g>
<g class="st0">
	
		<image style="overflow:visible;enable-background:new    ;" width="813" height="1146" xlink:href="3ECC4FB3.png"  transform="matrix(0.2394 0 0 0.2394 370.32 95.2583)">
	</image>
</g>
<g>
	<path class="st1" d="M390.8,320.2h-61.3c-1.7,0-3-1.3-3-3v-30.6c0-1.7,1.3-3,3-3h61.3c1.7,0,3,1.3,3,3v30.6
		C393.8,318.8,392.5,320.2,390.8,320.2z"/>
	<g>
		<path class="st1" d="M361.9,118.1l7,70.3c7.6,3.7,12.6,12,11.3,21.3c-1.3,8.9-8.7,16-17.7,17c-12.2,1.4-22.5-8.2-22.5-20.1
			c0-8,4.7-15,11.5-18.2l7.1-70.3l-47.1,85.5c-0.6,1.2-0.7,2.5-0.4,3.8l13.8,62.3c0.6,2.7,3,4.7,5.8,4.7h57.7c2.8,0,5.2-1.9,5.8-4.6
			l14.2-62.3c0.3-1.3,0.2-2.6-0.4-3.8L361.9,118.1z"/>
	</g>
</g>
<path class="st1" d="M241.1,220l68.2-68.2c2.4-2.4,2.4-6.2,0-8.6l-6.8-6.8c-6.9-6.9-18.2-6.9-25.1,0L193.9,220
	c-6.9,6.9-6.9,18.2,0,25.1l83.6,83.6c6.9,6.9,18.2,6.9,25.1,0l6.8-6.8c2.4-2.4,2.4-6.2,0-8.6l-68.2-68.2
	C234.1,238.1,234.1,226.9,241.1,220z"/>
<path class="st1" d="M526.1,220l-83.6-83.6c-6.9-6.9-18.2-6.9-25.1,0l-6.8,6.8c-2.4,2.4-2.4,6.2,0,8.6l68.2,68.2
	c6.9,6.9,6.9,18.2,0,25.1l-68.2,68.2c-2.4,2.4-2.4,6.2,0,8.6l6.8,6.8c6.9,6.9,18.2,6.9,25.1,0l83.6-83.6
	C533,238.1,533,226.9,526.1,220z"/>
</svg>
