<?xml version="1.0" encoding="utf-8"?>
<!-- Generator: Adobe Illustrator 22.1.0, SVG Export Plug-In . SVG Version: 6.00 Build 0)  -->
<svg version="1.1" id="Layer_1" xmlns="http://www.w3.org/2000/svg" xmlns:xlink="http://www.w3.org/1999/xlink" x="0px" y="0px"
	 viewBox="0 0 720 228" style="enable-background:new 0 0 720 228;" xml:space="preserve">
<style type="text/css">
	.st0{fill:#26011C;}
	.st1{opacity:0.7;}
	.st2{fill:url(#SVGID_1_);}
	.st3{fill:url(#SVGID_2_);}
	.st4{fill:#013A40;}
	.st5{fill:#025949;}
	.st6{display:none;}
	.st7{display:inline;}
	.st8{fill:#FFFFFF;}
	.st9{display:inline;opacity:0.7;}
	.st10{display:inline;fill:#FFFFFF;}
</style>
<g id="color">
	<g>
		<path class="st0" d="M237.2,157.5h-1.5c-3,0-6.2-3.8-9.6-11.4c-2.2-3.4-5.6-9.2-10.1-17.6h-0.5c-9.4,16.9-14.8,26.2-16.3,27.7
			c-1.4,0.8-2.6,1.2-3.5,1.2h-1.5c-2.7,0-5.2-2.5-7.4-7.4c-14.1-23.7-21.2-36.5-21.3-38.3l-0.7-6.2V103c0-7.8,3.6-14.6,10.9-20.5
			c0.9-0.5,1.7-0.7,2.5-0.7h1.5c3.2,0,5.2,2.2,6.2,6.7c0,2.1-1.7,4.8-5.2,7.9c-1.6,3.1-2.5,5.8-2.5,8.2c0,3.3,2.9,9.4,8.7,18.3
			l7.9,14.1h0.2l16.3-27.5c1.7-1,3.3-1.5,4.7-1.5c3.3,0,6.3,3.1,8.9,9.4l11.6,19.5h0.2c10.7-18.5,16.1-28.2,16.1-29.2l0.5-3.2
			c0-4.4-2.2-8.6-6.7-12.6l-1-3.5c0.9-4.5,3-6.7,6.2-6.7h1.5c3.3,0,6.9,3.7,10.9,11.1c1.6,3.5,2.5,6.8,2.5,10.1v2.5
			c0,5.6-2.8,12.6-8.4,21c-10.2,18-16,27.8-17.3,29.4C239.5,157.1,238.2,157.5,237.2,157.5z"/>
		<path class="st0" d="M299.3,157.5h-3c-9.2,0-17-5-23.2-15.1c-1.8-4.2-2.7-7.8-2.7-10.9v-3c0-9.2,5-17,15.1-23.2
			c4.2-1.8,7.8-2.7,10.9-2.7h3c9.2,0,17,5,23.2,15.1c1.8,4.2,2.7,7.8,2.7,10.9v2.2c-1,4-3,5.9-5.9,5.9H297c-4-1-5.9-3-5.9-5.9v-1.5
			c0-3.7,2.7-5.7,8.2-6.2h10.6c-3.2-4.6-6.8-6.9-10.9-6.9h-2.5c-5,0-9,3.1-12.1,9.4l-0.5,3.2v2.5c0,5,3.1,9,9.4,12.1l3.2,0.5h2.5
			c3.1,0,6.4-1.7,10.1-5.2c1.8-0.5,2.9-0.7,3.2-0.7c4.6,0.6,6.9,2.8,6.9,6.7c0,5-5.4,9.2-16.3,12.6L299.3,157.5z"/>
		<path class="st0" d="M364.1,157.5h-3c-9.2,0-17-5-23.2-15.1c-1.8-4.2-2.7-7.8-2.7-10.9V87.7c1-4,3-5.9,5.9-5.9h1.5
			c3.7,0,5.7,2.7,6.2,8.2v41.3c0,5,3.1,9,9.4,12.1l3.2,0.5h2.5c5,0,9-3.1,12.1-9.4l0.5-3.2v-2.4c0-4.5-2.6-8.3-7.9-11.4
			c-1.4-0.8-4.2-1.4-8.4-1.7c-2.8-1.6-4.2-3.5-4.2-5.7v-1.5c1-4,3-5.9,5.9-5.9h2.2c9.2,0,17,5,23.2,15.1c1.8,4.2,2.7,7.8,2.7,10.9v3
			c0,9.2-5,17-15.1,23.2C370.8,156.6,367.1,157.5,364.1,157.5z"/>
	</g>
	<g>
		<path class="st0" d="M422.3,157.3h-1.2c-3.7,0-6.8-2-9.4-6.1c-0.7-1.7-1.1-3.1-1.1-4.4v-1.2c0-3.7,2-6.8,6.1-9.4
			c1.7-0.7,3.1-1.1,4.4-1.1h0.9c1.6,0.4,2.4,1.2,2.4,2.4v0.6c0,1.5-1.1,2.3-3.3,2.5c-1.8,0-3.4,1.2-4.7,3.5l-0.3,1.6v1
			c0,2,1.3,3.6,3.8,4.9l1.3,0.2h1c2,0,3.6-1.3,4.9-3.8l0.2-1.3v-16.2c0-2,0.6-3.2,1.9-3.6c0.4-0.1,0.8-0.1,1.2-0.1
			c1.6,0.4,2.4,1.2,2.4,2.4v17.7c0,3.7-2,6.8-6.1,9.4C425,157,423.6,157.3,422.3,157.3z"/>
		<path class="st0" d="M448.4,157.3h-1.2c-3.7,0-6.8-2-9.4-6.1c-0.7-1.7-1.1-3.1-1.1-4.4v-1.2c0-3.7,2-6.8,6.1-9.4
			c1.7-0.7,3.1-1.1,4.4-1.1h1.2c3.7,0,6.8,2,9.4,6.1c0.7,1.7,1.1,3.1,1.1,4.4v0.9c-0.4,1.6-1.2,2.4-2.4,2.4h-9
			c-1.6-0.4-2.4-1.2-2.4-2.4v-0.6c0-1.5,1.1-2.3,3.3-2.5h4.3c-1.3-1.9-2.7-2.8-4.4-2.8h-1c-2,0-3.6,1.3-4.9,3.8l-0.2,1.3v1
			c0,2,1.3,3.6,3.8,4.9l1.3,0.2h1c1.2,0,2.6-0.7,4.1-2.1c0.7-0.2,1.2-0.3,1.3-0.3c1.9,0.2,2.8,1.1,2.8,2.7c0,2-2.2,3.7-6.6,5.1
			L448.4,157.3z"/>
		<path class="st0" d="M474.5,157.3h-0.9c-0.8,0-2-0.9-3.5-2.7c-4.3-4-6.4-6.5-6.4-7.5c-0.6-1.2-0.9-2.5-0.9-3.8v-1.2
			c0-2.2,0.8-4.3,2.5-6.4c0.6-0.4,1.1-0.6,1.5-0.6h0.6c1.6,0.4,2.4,1.2,2.4,2.4v0.6c0,0.3-0.4,1.2-1.3,2.9l-0.2,1.4v0.8
			c0,1.7,1.4,3.8,4.3,6.2l1.3,1.3c3.6-3.3,5.4-5.5,5.5-6.6c0.1-0.6,0.1-1.1,0.1-1.7c0-1-0.5-2.3-1.4-3.8l-0.1-0.5v-0.6
			c0.4-1.6,1.2-2.4,2.4-2.4h0.6c1.8,0,3.1,2.1,4,6.4v1.8c0,3.3-1.9,6.4-5.6,9.6C476.7,155.9,475.1,157.3,474.5,157.3z"/>
		<path class="st0" d="M500.6,157.3h-1.2c-3.7,0-6.8-2-9.4-6.1c-0.7-1.7-1.1-3.1-1.1-4.4v-1.2c0-3.7,2-6.8,6.1-9.4
			c1.7-0.7,3.1-1.1,4.4-1.1h1.2c3.7,0,6.8,2,9.4,6.1c0.7,1.7,1.1,3.1,1.1,4.4v0.9c-0.4,1.6-1.2,2.4-2.4,2.4h-9
			c-1.6-0.4-2.4-1.2-2.4-2.4v-0.6c0-1.5,1.1-2.3,3.3-2.5h4.3c-1.3-1.9-2.7-2.8-4.4-2.8h-1c-2,0-3.6,1.3-4.9,3.8l-0.2,1.3v1
			c0,2,1.3,3.6,3.8,4.9l1.3,0.2h1c1.2,0,2.6-0.7,4.1-2.1c0.7-0.2,1.2-0.3,1.3-0.3c1.9,0.2,2.8,1.1,2.8,2.7c0,2-2.2,3.7-6.6,5.1
			L500.6,157.3z"/>
		<path class="st0" d="M526.7,157.3h-1.2c-3.7,0-6.8-2-9.4-6.1c-0.7-1.7-1.1-3.1-1.1-4.4v-17.6c0.4-1.6,1.2-2.4,2.4-2.4h0.6
			c1.5,0,2.3,1.1,2.5,3.3v16.6c0,2,1.3,3.6,3.8,4.9l1.3,0.2h1c1.8,0,3.4-1.1,4.6-3.2c0.3-0.6,0.5-1.7,0.7-3.4
			c0.6-1.1,1.4-1.7,2.3-1.7h0.6c1.6,0.4,2.4,1.2,2.4,2.4v0.9c0,3.7-2,6.8-6.1,9.4C529.4,157,528,157.3,526.7,157.3z"/>
		<path class="st0" d="M552.8,157.3h-1.2c-3.5,0-6.4-1.8-8.9-5.3c-1.1-1.8-1.6-3.5-1.6-5.2v-1.2c0-3.5,1.8-6.4,5.3-8.9
			c1.8-1.1,3.5-1.6,5.2-1.6h1.2c3.5,0,6.4,1.8,8.9,5.3c1.1,1.8,1.6,3.5,1.6,5.2v1.2c0,3.5-1.8,6.4-5.3,8.9
			C556.2,156.8,554.5,157.3,552.8,157.3z M552.7,151.9c2.1,0,3.7-1.3,4.9-3.8l0.2-1.3v-1c0-2.1-1.3-3.7-3.8-4.9l-1.3-0.2h-1
			c-2.1,0-3.7,1.3-4.9,3.8l-0.2,1.3v1c0,2.1,1.3,3.7,3.8,4.9l1.3,0.2H552.7z"/>
		<path class="st0" d="M570.3,165.8h-0.6c-1.6-0.4-2.4-1.2-2.4-2.4v-17.6c0-3.7,2-6.8,6.1-9.4c1.7-0.7,3.1-1.1,4.4-1.1h1.2
			c3.7,0,6.8,2,9.4,6.1c0.7,1.7,1.1,3.1,1.1,4.4v1.2c0,3.7-2,6.8-6.1,9.4c-1.7,0.7-3.1,1.1-4.4,1.1h-1c-1.6-0.4-2.4-1.2-2.4-2.4
			v-0.6c0-1.5,1.1-2.3,3.3-2.5c1.8,0,3.4-1.2,4.7-3.5l0.3-1.6v-1c0-2-1.3-3.6-3.8-4.9l-1.3-0.2h-1c-2,0-3.6,1.3-4.9,3.8l-0.2,1.3
			v16.2c0,2-0.6,3.2-1.9,3.6L570.3,165.8z"/>
		<path class="st0" d="M605.1,157.3h-1.2c-3.7,0-6.8-2-9.4-6.1c-0.7-1.7-1.1-3.1-1.1-4.4v-1.2c0-3.7,2-6.8,6.1-9.4
			c1.7-0.7,3.1-1.1,4.4-1.1h1.2c3.7,0,6.8,2,9.4,6.1c0.7,1.7,1.1,3.1,1.1,4.4v0.9c-0.4,1.6-1.2,2.4-2.4,2.4h-9
			c-1.6-0.4-2.4-1.2-2.4-2.4v-0.6c0-1.5,1.1-2.3,3.3-2.5h4.3c-1.3-1.9-2.7-2.8-4.4-2.8h-1c-2,0-3.6,1.3-4.9,3.8l-0.2,1.3v1
			c0,2,1.3,3.6,3.8,4.9l1.3,0.2h1c1.2,0,2.6-0.7,4.1-2.1c0.7-0.2,1.2-0.3,1.3-0.3c1.9,0.2,2.8,1.1,2.8,2.7c0,2-2.2,3.7-6.6,5.1
			L605.1,157.3z"/>
		<path class="st0" d="M622.5,157.3h-0.6c-1.6-0.4-2.4-1.2-2.4-2.4v-9.3c0-3.7,2-6.8,6.1-9.4c1.7-0.7,3.1-1.1,4.4-1.1h1.2
			c3.7,0,6.8,2,9.4,6.1c0.7,1.7,1.1,3.1,1.1,4.4v0.9c-0.4,1.6-1.2,2.4-2.4,2.4h-0.6c-1.5,0-2.3-1.1-2.5-3.3c0-1.8-1.2-3.4-3.5-4.7
			l-1.6-0.3h-1c-2,0-3.6,1.3-4.9,3.8l-0.2,1.3v7.9c0,2-0.6,3.2-1.9,3.6L622.5,157.3z"/>
	</g>
	<g>
		<path class="st0" d="M422.3,112.4h-1.2c-3.7,0-6.8-2-9.4-6.1c-0.7-1.7-1.1-3.1-1.1-4.4v-1.2c0-3.7,2-6.8,6.1-9.4
			c1.7-0.7,3.1-1.1,4.4-1.1h0.9c1.6,0.4,2.4,1.2,2.4,2.4v0.6c0,1.5-1.1,2.3-3.3,2.5c-1.8,0-3.4,1.2-4.7,3.5l-0.3,1.6v1
			c0,2,1.3,3.6,3.8,4.9l1.3,0.2h1c2,0,3.6-1.3,4.9-3.8l0.2-1.3V85.6c0-2,0.6-3.2,1.9-3.6c0.4-0.1,0.8-0.1,1.2-0.1
			c1.6,0.4,2.4,1.2,2.4,2.4v17.6c0,3.7-2,6.8-6.1,9.4C425,112,423.6,112.4,422.3,112.4z"/>
		<path class="st0" d="M448.4,112.4h-1.2c-3.7,0-6.8-2-9.4-6.1c-0.7-1.7-1.1-3.1-1.1-4.4v-1.2c0-3.7,2-6.8,6.1-9.4
			c1.7-0.7,3.1-1.1,4.4-1.1h1.2c3.7,0,6.8,2,9.4,6.1c0.7,1.7,1.1,3.1,1.1,4.4v0.9c-0.4,1.6-1.2,2.4-2.4,2.4h-9
			c-1.6-0.4-2.4-1.2-2.4-2.4V101c0-1.5,1.1-2.3,3.3-2.5h4.3c-1.3-1.9-2.7-2.8-4.4-2.8h-1c-2,0-3.6,1.3-4.9,3.8l-0.2,1.3v1
			c0,2,1.3,3.6,3.8,4.9l1.3,0.2h1c1.2,0,2.6-0.7,4.1-2.1c0.7-0.2,1.2-0.3,1.3-0.3c1.9,0.2,2.8,1.1,2.8,2.7c0,2-2.2,3.7-6.6,5.1
			L448.4,112.4z"/>
		<path class="st0" d="M474.7,112.4h-1.6c-4,0-7.2-1.3-9.4-4l-0.3-1.3c0-1.5,0.9-2.4,2.8-2.7h0.2c0.6,0,1.5,0.5,2.7,1.6
			c1.5,0.6,2.8,0.9,4,0.9h1.6c1.7,0,3.3-0.5,4.8-1.4c0-0.5-3.4-1.2-10.2-2.1c-4.3-1.1-6.5-3.1-6.5-5.8v-0.9c0-2.4,1.9-4.3,5.8-5.8
			c1.6-0.5,3.1-0.7,4.5-0.7h1.3c3.6,0,6.6,1,9,3.1c0.5,0.6,0.7,1.2,0.7,1.8c-0.3,1.8-1.2,2.7-2.7,2.7h-0.3c-0.5,0-1.3-0.4-2.3-1.1
			c-1.4-0.7-2.9-1-4.5-1h-1.2c-1.7,0-3.3,0.5-4.8,1.4c0,0.5,3.4,1.2,10.2,2.1c2.6,0.6,4.4,1.6,5.4,2.9c0.7,1,1.1,2,1.1,2.9v0.9
			c0,2.4-1.9,4.3-5.8,5.8C477.6,112.1,476.1,112.4,474.7,112.4z"/>
		<path class="st0" d="M492,87.3h-0.6c-1.6-0.4-2.4-1.2-2.4-2.4v-0.6c0.4-1.6,1.2-2.4,2.4-2.4h0.6c1.6,0.4,2.4,1.2,2.4,2.4v0.6
			C493.9,86.5,493.2,87.3,492,87.3z M492,112.4h-0.6c-1.6-0.4-2.4-1.2-2.4-2.4V92.7c0.4-1.6,1.2-2.4,2.4-2.4h0.6
			c1.6,0.4,2.4,1.2,2.4,2.4V110C493.9,111.6,493.2,112.4,492,112.4z"/>
		<path class="st0" d="M510,120.9h-1.2c-2.9,0-5.4-1.3-7.7-3.8c-0.3-0.4-0.4-0.9-0.4-1.5c0.4-1.7,1.2-2.6,2.6-2.6h0.4
			c0.6,0,1.5,0.5,2.7,1.6c0.9,0.5,1.8,0.8,2.5,0.8h1c2,0,3.6-1.3,4.9-3.8l0.2-1.3v-9.4c0-2-1.3-3.6-3.8-4.9l-1.3-0.2h-1
			c-2,0-3.6,1.3-4.9,3.8l-0.2,1.3v1c0,1.8,1.1,3.4,3.2,4.6c0.6,0.3,1.7,0.5,3.4,0.7c1.1,0.6,1.7,1.4,1.7,2.3v0.6
			c-0.4,1.6-1.2,2.4-2.4,2.4h-0.9c-3.7,0-6.8-2-9.4-6.1c-0.7-1.7-1.1-3.1-1.1-4.4v-1.1c0-3.7,2-6.8,6.1-9.4c1.7-0.7,3.1-1.1,4.4-1.1
			h1.2c3.7,0,6.8,2,9.4,6.1c0.7,1.7,1.1,3.2,1.1,4.4v9.6c0,3.7-2,6.8-6.1,9.4C512.7,120.5,511.2,120.9,510,120.9z"/>
		<path class="st0" d="M544.2,112.4h-0.6c-1.5,0-2.3-1.1-2.5-3.3v-8.3c0-2-1.3-3.6-3.8-4.9l-1.3-0.2h-1c-2,0-3.6,1.3-4.9,3.8
			l-0.2,1.3v7.9c0,2-0.6,3.2-1.9,3.6c-0.4,0.1-0.8,0.1-1.2,0.1c-1.6-0.4-2.4-1.2-2.4-2.4v-9.3c0-3.7,2-6.8,6.1-9.4
			c1.7-0.7,3.1-1.1,4.4-1.1h1.2c3.7,0,6.8,2,9.4,6.1c0.7,1.7,1.1,3.1,1.1,4.4v9.3C546.2,111.6,545.4,112.4,544.2,112.4z"/>
		<path class="st0" d="M562.2,112.4H561c-3.7,0-6.8-2-9.4-6.1c-0.7-1.7-1.1-3.1-1.1-4.4v-1.2c0-3.7,2-6.8,6.1-9.4
			c1.7-0.7,3.1-1.1,4.4-1.1h1.2c3.7,0,6.8,2,9.4,6.1c0.7,1.7,1.1,3.1,1.1,4.4v0.9c-0.4,1.6-1.2,2.4-2.4,2.4h-9
			c-1.6-0.4-2.4-1.2-2.4-2.4V101c0-1.5,1.1-2.3,3.3-2.5h4.3c-1.3-1.9-2.7-2.8-4.4-2.8h-1c-2,0-3.6,1.3-4.9,3.8l-0.2,1.3v1
			c0,2,1.3,3.6,3.8,4.9l1.3,0.2h1c1.2,0,2.6-0.7,4.1-2.1c0.7-0.2,1.2-0.3,1.3-0.3c1.9,0.2,2.8,1.1,2.8,2.7c0,2-2.2,3.7-6.6,5.1
			L562.2,112.4z"/>
		<path class="st0" d="M579.6,112.4H579c-1.6-0.4-2.4-1.2-2.4-2.4v-9.3c0-3.7,2-6.8,6.1-9.4c1.7-0.7,3.1-1.1,4.4-1.1h1.2
			c3.7,0,6.8,2,9.4,6.1c0.7,1.7,1.1,3.1,1.1,4.4v0.9c-0.4,1.6-1.2,2.4-2.4,2.4h-0.6c-1.5,0-2.3-1.1-2.5-3.3c0-1.8-1.2-3.4-3.5-4.7
			l-1.6-0.3h-1c-2,0-3.6,1.3-4.9,3.8l-0.2,1.3v7.9c0,2-0.6,3.2-1.9,3.6L579.6,112.4z"/>
	</g>
	<g class="st1">
		
			<image style="overflow:visible;enable-background:new    ;" width="654" height="654" xlink:href="66C3DC72.png"  transform="matrix(0.2385 0 0 0.2385 36.12 46.5829)">
		</image>
	</g>
	<g class="st1">
		
			<image style="overflow:visible;enable-background:new    ;" width="563" height="733" xlink:href="66C3DC76.png"  transform="matrix(0.2387 0 0 0.2387 -18.72 37.8117)">
		</image>
	</g>
	<g class="st1">
		
			<image style="overflow:visible;enable-background:new    ;" width="567" height="733" xlink:href="66C3DC71.png"  transform="matrix(0.237 0 0 0.237 603.84 38.4289)">
		</image>
	</g>
	<g>
		
			<linearGradient id="SVGID_1_" gradientUnits="userSpaceOnUse" x1="79.6697" y1="366.88" x2="97.8936" y2="398.4445" gradientTransform="matrix(1 0 0 1 0 -234.1941)">
			<stop  offset="0.3" style="stop-color:#013A40"/>
			<stop  offset="0.7" style="stop-color:#025949"/>
		</linearGradient>
		<path class="st2" d="M92.2,165l-19.9-19.9c-1.2-1.2-1.2-3.1,0-4.2l8.9-8.9c1.2-1.2,3.1-1.2,4.2,0l19.9,19.9c1.2,1.2,1.2,3.1,0,4.2
			l-8.9,8.9C95.2,166.2,93.3,166.2,92.2,165z"/>
		<g>
			
				<linearGradient id="SVGID_2_" gradientUnits="userSpaceOnUse" x1="113.5865" y1="325.7578" x2="138.2116" y2="368.4099" gradientTransform="matrix(1 0 0 1 0 -234.1941)">
				<stop  offset="0.3" style="stop-color:#013A40"/>
				<stop  offset="0.7" style="stop-color:#025949"/>
			</linearGradient>
			<path class="st3" d="M155.4,83.1l-22.7,27.8c1.4,4.1,0.2,8.8-3.6,11.7c-3.7,2.7-8.9,2.6-12.5-0.2c-4.9-3.9-5.2-11-0.9-15.3
				c2.9-2.9,7.1-3.7,10.7-2.4L154.2,82l-47.6,13.8c-0.6,0.2-1.2,0.7-1.5,1.2l-17.4,27.3c-0.8,1.2-0.6,2.8,0.4,3.8l20.7,20.7
				c1,1,2.5,1.2,3.7,0.4l27.5-17.3c0.6-0.4,1-0.9,1.2-1.5L155.4,83.1z"/>
		</g>
	</g>
	<path class="st4" d="M42.2,119l34.7-34.7c1.2-1.2,1.2-3.2,0-4.4l-3.4-3.4c-3.5-3.5-9.2-3.5-12.7,0l-42.4,42.4
		c-3.5,3.5-3.5,9.2,0,12.7L60.8,174c3.5,3.5,9.2,3.5,12.7,0l3.4-3.4c1.2-1.2,1.2-3.2,0-4.4l-34.7-34.7
		C38.7,128.2,38.7,122.5,42.2,119z"/>
	<path class="st5" d="M701.1,119l-42.4-42.4c-3.5-3.5-9.2-3.5-12.7,0l-3.4,3.4c-1.2,1.2-1.2,3.2,0,4.4l34.7,34.7
		c3.5,3.5,3.5,9.2,0,12.7l-34.7,34.7c-1.2,1.2-1.2,3.2,0,4.4l3.4,3.4c3.5,3.5,9.2,3.5,12.7,0l42.4-42.4
		C704.6,128.2,704.6,122.5,701.1,119z"/>
</g>
<g id="blanco" class="st6">
	<g class="st7">
		<path class="st8" d="M237.2,157.5h-1.5c-3,0-6.2-3.8-9.6-11.4c-2.2-3.4-5.6-9.2-10.1-17.6h-0.5c-9.4,16.9-14.8,26.2-16.3,27.7
			c-1.4,0.8-2.6,1.2-3.5,1.2h-1.5c-2.7,0-5.2-2.5-7.4-7.4c-14.1-23.7-21.2-36.5-21.3-38.3l-0.7-6.2V103c0-7.8,3.6-14.6,10.9-20.5
			c0.9-0.5,1.7-0.7,2.5-0.7h1.5c3.2,0,5.2,2.2,6.2,6.7c0,2.1-1.7,4.8-5.2,7.9c-1.6,3.1-2.5,5.8-2.5,8.2c0,3.3,2.9,9.4,8.7,18.3
			l7.9,14.1h0.2l16.3-27.5c1.7-1,3.3-1.5,4.7-1.5c3.3,0,6.3,3.1,8.9,9.4l11.6,19.5h0.2c10.7-18.5,16.1-28.2,16.1-29.2l0.5-3.2
			c0-4.4-2.2-8.6-6.7-12.6l-1-3.5c0.9-4.5,3-6.7,6.2-6.7h1.5c3.3,0,6.9,3.7,10.9,11.1c1.6,3.5,2.5,6.8,2.5,10.1v2.5
			c0,5.6-2.8,12.6-8.4,21c-10.2,18-16,27.8-17.3,29.4C239.5,157.1,238.2,157.5,237.2,157.5z"/>
		<path class="st8" d="M299.3,157.5h-3c-9.2,0-17-5-23.2-15.1c-1.8-4.2-2.7-7.8-2.7-10.9v-3c0-9.2,5-17,15.1-23.2
			c4.2-1.8,7.8-2.7,10.9-2.7h3c9.2,0,17,5,23.2,15.1c1.8,4.2,2.7,7.8,2.7,10.9v2.2c-1,4-3,5.9-5.9,5.9H297c-4-1-5.9-3-5.9-5.9v-1.5
			c0-3.7,2.7-5.7,8.2-6.2h10.6c-3.2-4.6-6.8-6.9-10.9-6.9h-2.5c-5,0-9,3.1-12.1,9.4l-0.5,3.2v2.5c0,5,3.1,9,9.4,12.1l3.2,0.5h2.5
			c3.1,0,6.4-1.7,10.1-5.2c1.8-0.5,2.9-0.7,3.2-0.7c4.6,0.6,6.9,2.8,6.9,6.7c0,5-5.4,9.2-16.3,12.6L299.3,157.5z"/>
		<path class="st8" d="M364.1,157.5h-3c-9.2,0-17-5-23.2-15.1c-1.8-4.2-2.7-7.8-2.7-10.9V87.7c1-4,3-5.9,5.9-5.9h1.5
			c3.7,0,5.7,2.7,6.2,8.2v41.3c0,5,3.1,9,9.4,12.1l3.2,0.5h2.5c5,0,9-3.1,12.1-9.4l0.5-3.2v-2.4c0-4.5-2.6-8.3-7.9-11.4
			c-1.4-0.8-4.2-1.4-8.4-1.7c-2.8-1.6-4.2-3.5-4.2-5.7v-1.5c1-4,3-5.9,5.9-5.9h2.2c9.2,0,17,5,23.2,15.1c1.8,4.2,2.7,7.8,2.7,10.9v3
			c0,9.2-5,17-15.1,23.2C370.8,156.6,367.1,157.5,364.1,157.5z"/>
	</g>
	<g class="st7">
		<path class="st8" d="M422.3,157.3h-1.2c-3.7,0-6.8-2-9.4-6.1c-0.7-1.7-1.1-3.1-1.1-4.4v-1.2c0-3.7,2-6.8,6.1-9.4
			c1.7-0.7,3.1-1.1,4.4-1.1h0.9c1.6,0.4,2.4,1.2,2.4,2.4v0.6c0,1.5-1.1,2.3-3.3,2.5c-1.8,0-3.4,1.2-4.7,3.5l-0.3,1.6v1
			c0,2,1.3,3.6,3.8,4.9l1.3,0.2h1c2,0,3.6-1.3,4.9-3.8l0.2-1.3v-16.2c0-2,0.6-3.2,1.9-3.6c0.4-0.1,0.8-0.1,1.2-0.1
			c1.6,0.4,2.4,1.2,2.4,2.4v17.7c0,3.7-2,6.8-6.1,9.4C425,157,423.6,157.3,422.3,157.3z"/>
		<path class="st8" d="M448.4,157.3h-1.2c-3.7,0-6.8-2-9.4-6.1c-0.7-1.7-1.1-3.1-1.1-4.4v-1.2c0-3.7,2-6.8,6.1-9.4
			c1.7-0.7,3.1-1.1,4.4-1.1h1.2c3.7,0,6.8,2,9.4,6.1c0.7,1.7,1.1,3.1,1.1,4.4v0.9c-0.4,1.6-1.2,2.4-2.4,2.4h-9
			c-1.6-0.4-2.4-1.2-2.4-2.4v-0.6c0-1.5,1.1-2.3,3.3-2.5h4.3c-1.3-1.9-2.7-2.8-4.4-2.8h-1c-2,0-3.6,1.3-4.9,3.8l-0.2,1.3v1
			c0,2,1.3,3.6,3.8,4.9l1.3,0.2h1c1.2,0,2.6-0.7,4.1-2.1c0.7-0.2,1.2-0.3,1.3-0.3c1.9,0.2,2.8,1.1,2.8,2.7c0,2-2.2,3.7-6.6,5.1
			L448.4,157.3z"/>
		<path class="st8" d="M474.5,157.3h-0.9c-0.8,0-2-0.9-3.5-2.7c-4.3-4-6.4-6.5-6.4-7.5c-0.6-1.2-0.9-2.5-0.9-3.8v-1.2
			c0-2.2,0.8-4.3,2.5-6.4c0.6-0.4,1.1-0.6,1.5-0.6h0.6c1.6,0.4,2.4,1.2,2.4,2.4v0.6c0,0.3-0.4,1.2-1.3,2.9l-0.2,1.4v0.8
			c0,1.7,1.4,3.8,4.3,6.2l1.3,1.3c3.6-3.3,5.4-5.5,5.5-6.6c0.1-0.6,0.1-1.1,0.1-1.7c0-1-0.5-2.3-1.4-3.8l-0.1-0.5v-0.6
			c0.4-1.6,1.2-2.4,2.4-2.4h0.6c1.8,0,3.1,2.1,4,6.4v1.8c0,3.3-1.9,6.4-5.6,9.6C476.7,155.9,475.1,157.3,474.5,157.3z"/>
		<path class="st8" d="M500.6,157.3h-1.2c-3.7,0-6.8-2-9.4-6.1c-0.7-1.7-1.1-3.1-1.1-4.4v-1.2c0-3.7,2-6.8,6.1-9.4
			c1.7-0.7,3.1-1.1,4.4-1.1h1.2c3.7,0,6.8,2,9.4,6.1c0.7,1.7,1.1,3.1,1.1,4.4v0.9c-0.4,1.6-1.2,2.4-2.4,2.4h-9
			c-1.6-0.4-2.4-1.2-2.4-2.4v-0.6c0-1.5,1.1-2.3,3.3-2.5h4.3c-1.3-1.9-2.7-2.8-4.4-2.8h-1c-2,0-3.6,1.3-4.9,3.8l-0.2,1.3v1
			c0,2,1.3,3.6,3.8,4.9l1.3,0.2h1c1.2,0,2.6-0.7,4.1-2.1c0.7-0.2,1.2-0.3,1.3-0.3c1.9,0.2,2.8,1.1,2.8,2.7c0,2-2.2,3.7-6.6,5.1
			L500.6,157.3z"/>
		<path class="st8" d="M526.7,157.3h-1.2c-3.7,0-6.8-2-9.4-6.1c-0.7-1.7-1.1-3.1-1.1-4.4v-17.6c0.4-1.6,1.2-2.4,2.4-2.4h0.6
			c1.5,0,2.3,1.1,2.5,3.3v16.6c0,2,1.3,3.6,3.8,4.9l1.3,0.2h1c1.8,0,3.4-1.1,4.6-3.2c0.3-0.6,0.5-1.7,0.7-3.4
			c0.6-1.1,1.4-1.7,2.3-1.7h0.6c1.6,0.4,2.4,1.2,2.4,2.4v0.9c0,3.7-2,6.8-6.1,9.4C529.4,157,528,157.3,526.7,157.3z"/>
		<path class="st8" d="M552.8,157.3h-1.2c-3.5,0-6.4-1.8-8.9-5.3c-1.1-1.8-1.6-3.5-1.6-5.2v-1.2c0-3.5,1.8-6.4,5.3-8.9
			c1.8-1.1,3.5-1.6,5.2-1.6h1.2c3.5,0,6.4,1.8,8.9,5.3c1.1,1.8,1.6,3.5,1.6,5.2v1.2c0,3.5-1.8,6.4-5.3,8.9
			C556.2,156.8,554.5,157.3,552.8,157.3z M552.7,151.9c2.1,0,3.7-1.3,4.9-3.8l0.2-1.3v-1c0-2.1-1.3-3.7-3.8-4.9l-1.3-0.2h-1
			c-2.1,0-3.7,1.3-4.9,3.8l-0.2,1.3v1c0,2.1,1.3,3.7,3.8,4.9l1.3,0.2H552.7z"/>
		<path class="st8" d="M570.3,165.8h-0.6c-1.6-0.4-2.4-1.2-2.4-2.4v-17.6c0-3.7,2-6.8,6.1-9.4c1.7-0.7,3.1-1.1,4.4-1.1h1.2
			c3.7,0,6.8,2,9.4,6.1c0.7,1.7,1.1,3.1,1.1,4.4v1.2c0,3.7-2,6.8-6.1,9.4c-1.7,0.7-3.1,1.1-4.4,1.1h-1c-1.6-0.4-2.4-1.2-2.4-2.4
			v-0.6c0-1.5,1.1-2.3,3.3-2.5c1.8,0,3.4-1.2,4.7-3.5l0.3-1.6v-1c0-2-1.3-3.6-3.8-4.9l-1.3-0.2h-1c-2,0-3.6,1.3-4.9,3.8l-0.2,1.3
			v16.2c0,2-0.6,3.2-1.9,3.6L570.3,165.8z"/>
		<path class="st8" d="M605.1,157.3h-1.2c-3.7,0-6.8-2-9.4-6.1c-0.7-1.7-1.1-3.1-1.1-4.4v-1.2c0-3.7,2-6.8,6.1-9.4
			c1.7-0.7,3.1-1.1,4.4-1.1h1.2c3.7,0,6.8,2,9.4,6.1c0.7,1.7,1.1,3.1,1.1,4.4v0.9c-0.4,1.6-1.2,2.4-2.4,2.4h-9
			c-1.6-0.4-2.4-1.2-2.4-2.4v-0.6c0-1.5,1.1-2.3,3.3-2.5h4.3c-1.3-1.9-2.7-2.8-4.4-2.8h-1c-2,0-3.6,1.3-4.9,3.8l-0.2,1.3v1
			c0,2,1.3,3.6,3.8,4.9l1.3,0.2h1c1.2,0,2.6-0.7,4.1-2.1c0.7-0.2,1.2-0.3,1.3-0.3c1.9,0.2,2.8,1.1,2.8,2.7c0,2-2.2,3.7-6.6,5.1
			L605.1,157.3z"/>
		<path class="st8" d="M622.5,157.3h-0.6c-1.6-0.4-2.4-1.2-2.4-2.4v-9.3c0-3.7,2-6.8,6.1-9.4c1.7-0.7,3.1-1.1,4.4-1.1h1.2
			c3.7,0,6.8,2,9.4,6.1c0.7,1.7,1.1,3.1,1.1,4.4v0.9c-0.4,1.6-1.2,2.4-2.4,2.4h-0.6c-1.5,0-2.3-1.1-2.5-3.3c0-1.8-1.2-3.4-3.5-4.7
			l-1.6-0.3h-1c-2,0-3.6,1.3-4.9,3.8l-0.2,1.3v7.9c0,2-0.6,3.2-1.9,3.6L622.5,157.3z"/>
	</g>
	<g class="st7">
		<path class="st8" d="M422.3,112.4h-1.2c-3.7,0-6.8-2-9.4-6.1c-0.7-1.7-1.1-3.1-1.1-4.4v-1.2c0-3.7,2-6.8,6.1-9.4
			c1.7-0.7,3.1-1.1,4.4-1.1h0.9c1.6,0.4,2.4,1.2,2.4,2.4v0.6c0,1.5-1.1,2.3-3.3,2.5c-1.8,0-3.4,1.2-4.7,3.5l-0.3,1.6v1
			c0,2,1.3,3.6,3.8,4.9l1.3,0.2h1c2,0,3.6-1.3,4.9-3.8l0.2-1.3V85.6c0-2,0.6-3.2,1.9-3.6c0.4-0.1,0.8-0.1,1.2-0.1
			c1.6,0.4,2.4,1.2,2.4,2.4v17.6c0,3.7-2,6.8-6.1,9.4C425,112,423.6,112.4,422.3,112.4z"/>
		<path class="st8" d="M448.4,112.4h-1.2c-3.7,0-6.8-2-9.4-6.1c-0.7-1.7-1.1-3.1-1.1-4.4v-1.2c0-3.7,2-6.8,6.1-9.4
			c1.7-0.7,3.1-1.1,4.4-1.1h1.2c3.7,0,6.8,2,9.4,6.1c0.7,1.7,1.1,3.1,1.1,4.4v0.9c-0.4,1.6-1.2,2.4-2.4,2.4h-9
			c-1.6-0.4-2.4-1.2-2.4-2.4V101c0-1.5,1.1-2.3,3.3-2.5h4.3c-1.3-1.9-2.7-2.8-4.4-2.8h-1c-2,0-3.6,1.3-4.9,3.8l-0.2,1.3v1
			c0,2,1.3,3.6,3.8,4.9l1.3,0.2h1c1.2,0,2.6-0.7,4.1-2.1c0.7-0.2,1.2-0.3,1.3-0.3c1.9,0.2,2.8,1.1,2.8,2.7c0,2-2.2,3.7-6.6,5.1
			L448.4,112.4z"/>
		<path class="st8" d="M474.7,112.4h-1.6c-4,0-7.2-1.3-9.4-4l-0.3-1.3c0-1.5,0.9-2.4,2.8-2.7h0.2c0.6,0,1.5,0.5,2.7,1.6
			c1.5,0.6,2.8,0.9,4,0.9h1.6c1.7,0,3.3-0.5,4.8-1.4c0-0.5-3.4-1.2-10.2-2.1c-4.3-1.1-6.5-3.1-6.5-5.8v-0.9c0-2.4,1.9-4.3,5.8-5.8
			c1.6-0.5,3.1-0.7,4.5-0.7h1.3c3.6,0,6.6,1,9,3.1c0.5,0.6,0.7,1.2,0.7,1.8c-0.3,1.8-1.2,2.7-2.7,2.7h-0.3c-0.5,0-1.3-0.4-2.3-1.1
			c-1.4-0.7-2.9-1-4.5-1h-1.2c-1.7,0-3.3,0.5-4.8,1.4c0,0.5,3.4,1.2,10.2,2.1c2.6,0.6,4.4,1.6,5.4,2.9c0.7,1,1.1,2,1.1,2.9v0.9
			c0,2.4-1.9,4.3-5.8,5.8C477.6,112.1,476.1,112.4,474.7,112.4z"/>
		<path class="st8" d="M492,87.3h-0.6c-1.6-0.4-2.4-1.2-2.4-2.4v-0.6c0.4-1.6,1.2-2.4,2.4-2.4h0.6c1.6,0.4,2.4,1.2,2.4,2.4v0.6
			C493.9,86.5,493.2,87.3,492,87.3z M492,112.4h-0.6c-1.6-0.4-2.4-1.2-2.4-2.4V92.7c0.4-1.6,1.2-2.4,2.4-2.4h0.6
			c1.6,0.4,2.4,1.2,2.4,2.4V110C493.9,111.6,493.2,112.4,492,112.4z"/>
		<path class="st8" d="M510,120.9h-1.2c-2.9,0-5.4-1.3-7.7-3.8c-0.3-0.4-0.4-0.9-0.4-1.5c0.4-1.7,1.2-2.6,2.6-2.6h0.4
			c0.6,0,1.5,0.5,2.7,1.6c0.9,0.5,1.8,0.8,2.5,0.8h1c2,0,3.6-1.3,4.9-3.8l0.2-1.3v-9.4c0-2-1.3-3.6-3.8-4.9l-1.3-0.2h-1
			c-2,0-3.6,1.3-4.9,3.8l-0.2,1.3v1c0,1.8,1.1,3.4,3.2,4.6c0.6,0.3,1.7,0.5,3.4,0.7c1.1,0.6,1.7,1.4,1.7,2.3v0.6
			c-0.4,1.6-1.2,2.4-2.4,2.4h-0.9c-3.7,0-6.8-2-9.4-6.1c-0.7-1.7-1.1-3.1-1.1-4.4v-1.1c0-3.7,2-6.8,6.1-9.4c1.7-0.7,3.1-1.1,4.4-1.1
			h1.2c3.7,0,6.8,2,9.4,6.1c0.7,1.7,1.1,3.2,1.1,4.4v9.6c0,3.7-2,6.8-6.1,9.4C512.7,120.5,511.2,120.9,510,120.9z"/>
		<path class="st8" d="M544.2,112.4h-0.6c-1.5,0-2.3-1.1-2.5-3.3v-8.3c0-2-1.3-3.6-3.8-4.9l-1.3-0.2h-1c-2,0-3.6,1.3-4.9,3.8
			l-0.2,1.3v7.9c0,2-0.6,3.2-1.9,3.6c-0.4,0.1-0.8,0.1-1.2,0.1c-1.6-0.4-2.4-1.2-2.4-2.4v-9.3c0-3.7,2-6.8,6.1-9.4
			c1.7-0.7,3.1-1.1,4.4-1.1h1.2c3.7,0,6.8,2,9.4,6.1c0.7,1.7,1.1,3.1,1.1,4.4v9.3C546.2,111.6,545.4,112.4,544.2,112.4z"/>
		<path class="st8" d="M562.2,112.4H561c-3.7,0-6.8-2-9.4-6.1c-0.7-1.7-1.1-3.1-1.1-4.4v-1.2c0-3.7,2-6.8,6.1-9.4
			c1.7-0.7,3.1-1.1,4.4-1.1h1.2c3.7,0,6.8,2,9.4,6.1c0.7,1.7,1.1,3.1,1.1,4.4v0.9c-0.4,1.6-1.2,2.4-2.4,2.4h-9
			c-1.6-0.4-2.4-1.2-2.4-2.4V101c0-1.5,1.1-2.3,3.3-2.5h4.3c-1.3-1.9-2.7-2.8-4.4-2.8h-1c-2,0-3.6,1.3-4.9,3.8l-0.2,1.3v1
			c0,2,1.3,3.6,3.8,4.9l1.3,0.2h1c1.2,0,2.6-0.7,4.1-2.1c0.7-0.2,1.2-0.3,1.3-0.3c1.9,0.2,2.8,1.1,2.8,2.7c0,2-2.2,3.7-6.6,5.1
			L562.2,112.4z"/>
		<path class="st8" d="M579.6,112.4H579c-1.6-0.4-2.4-1.2-2.4-2.4v-9.3c0-3.7,2-6.8,6.1-9.4c1.7-0.7,3.1-1.1,4.4-1.1h1.2
			c3.7,0,6.8,2,9.4,6.1c0.7,1.7,1.1,3.1,1.1,4.4v0.9c-0.4,1.6-1.2,2.4-2.4,2.4h-0.6c-1.5,0-2.3-1.1-2.5-3.3c0-1.8-1.2-3.4-3.5-4.7
			l-1.6-0.3h-1c-2,0-3.6,1.3-4.9,3.8l-0.2,1.3v7.9c0,2-0.6,3.2-1.9,3.6L579.6,112.4z"/>
	</g>
	<g class="st9">
		
			<image style="overflow:visible;enable-background:new    ;" width="659" height="659" xlink:href="66C3DC73.png"  transform="matrix(0.2367 0 0 0.2367 36.12 46.5829)">
		</image>
	</g>
	<g class="st9">
		
			<image style="overflow:visible;enable-background:new    ;" width="566" height="738" xlink:href="66C3DC70.png"  transform="matrix(0.2372 0 0 0.2372 -18.6573 37.7636)">
		</image>
	</g>
	<g class="st9">
		
			<image style="overflow:visible;enable-background:new    ;" width="574" height="739" xlink:href="66C3DC7E.png"  transform="matrix(0.2347 0 0 0.2347 603.667 38.563)">
		</image>
	</g>
	<g class="st7">
		<path class="st8" d="M92.2,165l-19.9-19.9c-1.2-1.2-1.2-3.1,0-4.2l8.9-8.9c1.2-1.2,3.1-1.2,4.2,0l19.9,19.9c1.2,1.2,1.2,3.1,0,4.2
			l-8.9,8.9C95.2,166.2,93.3,166.2,92.2,165z"/>
		<g>
			<path class="st8" d="M155.4,83.1l-22.7,27.8c1.4,4.1,0.2,8.8-3.6,11.7c-3.7,2.7-8.9,2.6-12.5-0.2c-4.9-3.9-5.2-11-0.9-15.3
				c2.9-2.9,7.1-3.7,10.7-2.4L154.2,82l-47.6,13.8c-0.6,0.2-1.2,0.7-1.5,1.2l-17.4,27.3c-0.8,1.2-0.6,2.8,0.4,3.8l20.7,20.7
				c1,1,2.5,1.2,3.7,0.4l27.5-17.3c0.6-0.4,1-0.9,1.2-1.5L155.4,83.1z"/>
		</g>
	</g>
	<path class="st10" d="M42.2,119l34.7-34.7c1.2-1.2,1.2-3.2,0-4.4l-3.4-3.4c-3.5-3.5-9.2-3.5-12.7,0l-42.4,42.4
		c-3.5,3.5-3.5,9.2,0,12.7L60.8,174c3.5,3.5,9.2,3.5,12.7,0l3.4-3.4c1.2-1.2,1.2-3.2,0-4.4l-34.7-34.7
		C38.7,128.2,38.7,122.5,42.2,119z"/>
	<path class="st10" d="M701.1,119l-42.4-42.4c-3.5-3.5-9.2-3.5-12.7,0l-3.4,3.4c-1.2,1.2-1.2,3.2,0,4.4l34.7,34.7
		c3.5,3.5,3.5,9.2,0,12.7l-34.7,34.7c-1.2,1.2-1.2,3.2,0,4.4l3.4,3.4c3.5,3.5,9.2,3.5,12.7,0l42.4-42.4
		C704.6,128.2,704.6,122.5,701.1,119z"/>
</g>
</svg>
