<?xml version="1.0" encoding="utf-8"?>
<!-- Generator: Adobe Illustrator 22.1.0, SVG Export Plug-In . SVG Version: 6.00 Build 0)  -->
<svg version="1.1" xmlns="http://www.w3.org/2000/svg" xmlns:xlink="http://www.w3.org/1999/xlink" x="0px" y="0px"
	 viewBox="0 0 500 500" style="enable-background:new 0 0 500 500;" xml:space="preserve">
<style type="text/css">
	.st0{opacity:0.4;}
	.st1{fill:#012626;}
	.st2{fill:#660053;}
	.st3{fill:#00938C;}
	.st4{fill:#FFFFFF;}
	.st5{fill:#827DDC;}
	.st6{fill:#C2C2EF;}
	.st7{fill:#9292F7;}
	.st8{fill:#9A9AFC;}
</style>
<g id="BACKGROUND">
	<g class="st0">
		<ellipse transform="matrix(0.7071 -0.7071 0.7071 0.7071 44.7494 296.2593)" class="st1" cx="380" cy="94.1" rx="82" ry="82"/>
		<rect x="47" y="72.9" class="st1" width="102" height="206.3"/>
	</g>
</g>
<g id="OBJECTS">
	<g>
		<g>
			<path class="st2" d="M363.4,493.4H108.9c-6,0-10.9-4.9-10.9-10.9V42c0-6,4.9-10.9,10.9-10.9h254.5c6,0,10.9,4.9,10.9,10.9v440.5
				C374.2,488.5,369.4,493.4,363.4,493.4z"/>
		</g>
		<g>
			<path class="st3" d="M348.4,456.2H123.9c-6.3,0-11.3-5.1-11.3-11.3V79.7c0-6.3,5.1-11.3,11.3-11.3h224.5
				c6.3,0,11.3,5.1,11.3,11.3v365.1C359.7,451.1,354.7,456.2,348.4,456.2z"/>
		</g>
		<g>
			<rect x="112.5" y="201.1" class="st1" width="203" height="53.5"/>
		</g>
		<g>
			<g>
				<g>
					<path class="st4" d="M350.3,332.6h-2.5c-0.3,0-0.5-0.2-0.5-0.5c0-0.3,0.2-0.5,0.5-0.5h1.5v-1.5c0-0.3,0.2-0.5,0.5-0.5
						c0.3,0,0.5,0.2,0.5,0.5V332.6z"/>
				</g>
				<g>
					<path class="st4" d="M339.8,332.6h-4c-0.3,0-0.5-0.2-0.5-0.5c0-0.3,0.2-0.5,0.5-0.5h4c0.3,0,0.5,0.2,0.5,0.5
						C340.3,332.4,340.1,332.6,339.8,332.6z M327.8,332.6h-4c-0.3,0-0.5-0.2-0.5-0.5c0-0.3,0.2-0.5,0.5-0.5h4c0.3,0,0.5,0.2,0.5,0.5
						C328.3,332.4,328,332.6,327.8,332.6z M315.7,332.6h-4c-0.3,0-0.5-0.2-0.5-0.5c0-0.3,0.2-0.5,0.5-0.5h4c0.3,0,0.5,0.2,0.5,0.5
						C316.2,332.4,316,332.6,315.7,332.6z M303.7,332.6h-4c-0.3,0-0.5-0.2-0.5-0.5c0-0.3,0.2-0.5,0.5-0.5h4c0.3,0,0.5,0.2,0.5,0.5
						C304.2,332.4,303.9,332.6,303.7,332.6z M291.6,332.6h-4c-0.3,0-0.5-0.2-0.5-0.5c0-0.3,0.2-0.5,0.5-0.5h4c0.3,0,0.5,0.2,0.5,0.5
						C292.1,332.4,291.9,332.6,291.6,332.6z M279.6,332.6h-4c-0.3,0-0.5-0.2-0.5-0.5c0-0.3,0.2-0.5,0.5-0.5h4c0.3,0,0.5,0.2,0.5,0.5
						C280.1,332.4,279.9,332.6,279.6,332.6z M267.5,332.6h-4c-0.3,0-0.5-0.2-0.5-0.5c0-0.3,0.2-0.5,0.5-0.5h4c0.3,0,0.5,0.2,0.5,0.5
						C268,332.4,267.8,332.6,267.5,332.6z M255.5,332.6h-4c-0.3,0-0.5-0.2-0.5-0.5c0-0.3,0.2-0.5,0.5-0.5h4c0.3,0,0.5,0.2,0.5,0.5
						C256,332.4,255.8,332.6,255.5,332.6z M243.4,332.6h-4c-0.3,0-0.5-0.2-0.5-0.5c0-0.3,0.2-0.5,0.5-0.5h4c0.3,0,0.5,0.2,0.5,0.5
						C243.9,332.4,243.7,332.6,243.4,332.6z M231.4,332.6h-4c-0.3,0-0.5-0.2-0.5-0.5c0-0.3,0.2-0.5,0.5-0.5h4c0.3,0,0.5,0.2,0.5,0.5
						C231.9,332.4,231.7,332.6,231.4,332.6z M219.4,332.6h-4c-0.3,0-0.5-0.2-0.5-0.5c0-0.3,0.2-0.5,0.5-0.5h4c0.3,0,0.5,0.2,0.5,0.5
						C219.9,332.4,219.6,332.6,219.4,332.6z M207.3,332.6h-4c-0.3,0-0.5-0.2-0.5-0.5c0-0.3,0.2-0.5,0.5-0.5h4c0.3,0,0.5,0.2,0.5,0.5
						C207.8,332.4,207.6,332.6,207.3,332.6z M195.3,332.6h-4c-0.3,0-0.5-0.2-0.5-0.5c0-0.3,0.2-0.5,0.5-0.5h4c0.3,0,0.5,0.2,0.5,0.5
						C195.8,332.4,195.5,332.6,195.3,332.6z M183.2,332.6h-4c-0.3,0-0.5-0.2-0.5-0.5c0-0.3,0.2-0.5,0.5-0.5h4c0.3,0,0.5,0.2,0.5,0.5
						C183.7,332.4,183.5,332.6,183.2,332.6z M171.2,332.6h-4c-0.3,0-0.5-0.2-0.5-0.5c0-0.3,0.2-0.5,0.5-0.5h4c0.3,0,0.5,0.2,0.5,0.5
						C171.7,332.4,171.5,332.6,171.2,332.6z M159.1,332.6h-4c-0.3,0-0.5-0.2-0.5-0.5c0-0.3,0.2-0.5,0.5-0.5h4c0.3,0,0.5,0.2,0.5,0.5
						C159.6,332.4,159.4,332.6,159.1,332.6z M147.1,332.6h-4c-0.3,0-0.5-0.2-0.5-0.5c0-0.3,0.2-0.5,0.5-0.5h4c0.3,0,0.5,0.2,0.5,0.5
						C147.6,332.4,147.4,332.6,147.1,332.6z M135,332.6h-4c-0.3,0-0.5-0.2-0.5-0.5c0-0.3,0.2-0.5,0.5-0.5h4c0.3,0,0.5,0.2,0.5,0.5
						C135.6,332.4,135.3,332.6,135,332.6z"/>
				</g>
				<g>
					<path class="st4" d="M123,332.6h-2.5v-2.5c0-0.3,0.2-0.5,0.5-0.5s0.5,0.2,0.5,0.5v1.5h1.5c0.3,0,0.5,0.2,0.5,0.5
						C123.5,332.4,123.3,332.6,123,332.6z"/>
				</g>
				<g>
					<path class="st4" d="M121,321.6c-0.3,0-0.5-0.2-0.5-0.5v-4.5c0-0.3,0.2-0.5,0.5-0.5s0.5,0.2,0.5,0.5v4.5
						C121.5,321.4,121.3,321.6,121,321.6z M121,308.1c-0.3,0-0.5-0.2-0.5-0.5v-4.5c0-0.3,0.2-0.5,0.5-0.5s0.5,0.2,0.5,0.5v4.5
						C121.5,307.9,121.3,308.1,121,308.1z M121,294.6c-0.3,0-0.5-0.2-0.5-0.5v-4.5c0-0.3,0.2-0.5,0.5-0.5s0.5,0.2,0.5,0.5v4.5
						C121.5,294.4,121.3,294.6,121,294.6z"/>
				</g>
				<g>
					<path class="st4" d="M121,281.1c-0.3,0-0.5-0.2-0.5-0.5v-2.5h2.5c0.3,0,0.5,0.2,0.5,0.5c0,0.3-0.2,0.5-0.5,0.5h-1.5v1.5
						C121.5,280.9,121.3,281.1,121,281.1z"/>
				</g>
				<g>
					<path class="st4" d="M339.8,279.1h-4c-0.3,0-0.5-0.2-0.5-0.5c0-0.3,0.2-0.5,0.5-0.5h4c0.3,0,0.5,0.2,0.5,0.5
						C340.3,278.9,340.1,279.1,339.8,279.1z M327.8,279.1h-4c-0.3,0-0.5-0.2-0.5-0.5c0-0.3,0.2-0.5,0.5-0.5h4c0.3,0,0.5,0.2,0.5,0.5
						C328.3,278.9,328,279.1,327.8,279.1z M315.7,279.1h-4c-0.3,0-0.5-0.2-0.5-0.5c0-0.3,0.2-0.5,0.5-0.5h4c0.3,0,0.5,0.2,0.5,0.5
						C316.2,278.9,316,279.1,315.7,279.1z M303.7,279.1h-4c-0.3,0-0.5-0.2-0.5-0.5c0-0.3,0.2-0.5,0.5-0.5h4c0.3,0,0.5,0.2,0.5,0.5
						C304.2,278.9,303.9,279.1,303.7,279.1z M291.6,279.1h-4c-0.3,0-0.5-0.2-0.5-0.5c0-0.3,0.2-0.5,0.5-0.5h4c0.3,0,0.5,0.2,0.5,0.5
						C292.1,278.9,291.9,279.1,291.6,279.1z M279.6,279.1h-4c-0.3,0-0.5-0.2-0.5-0.5c0-0.3,0.2-0.5,0.5-0.5h4c0.3,0,0.5,0.2,0.5,0.5
						C280.1,278.9,279.9,279.1,279.6,279.1z M267.5,279.1h-4c-0.3,0-0.5-0.2-0.5-0.5c0-0.3,0.2-0.5,0.5-0.5h4c0.3,0,0.5,0.2,0.5,0.5
						C268,278.9,267.8,279.1,267.5,279.1z M255.5,279.1h-4c-0.3,0-0.5-0.2-0.5-0.5c0-0.3,0.2-0.5,0.5-0.5h4c0.3,0,0.5,0.2,0.5,0.5
						C256,278.9,255.8,279.1,255.5,279.1z M243.4,279.1h-4c-0.3,0-0.5-0.2-0.5-0.5c0-0.3,0.2-0.5,0.5-0.5h4c0.3,0,0.5,0.2,0.5,0.5
						C243.9,278.9,243.7,279.1,243.4,279.1z M231.4,279.1h-4c-0.3,0-0.5-0.2-0.5-0.5c0-0.3,0.2-0.5,0.5-0.5h4c0.3,0,0.5,0.2,0.5,0.5
						C231.9,278.9,231.7,279.1,231.4,279.1z M219.4,279.1h-4c-0.3,0-0.5-0.2-0.5-0.5c0-0.3,0.2-0.5,0.5-0.5h4c0.3,0,0.5,0.2,0.5,0.5
						C219.9,278.9,219.6,279.1,219.4,279.1z M207.3,279.1h-4c-0.3,0-0.5-0.2-0.5-0.5c0-0.3,0.2-0.5,0.5-0.5h4c0.3,0,0.5,0.2,0.5,0.5
						C207.8,278.9,207.6,279.1,207.3,279.1z M195.3,279.1h-4c-0.3,0-0.5-0.2-0.5-0.5c0-0.3,0.2-0.5,0.5-0.5h4c0.3,0,0.5,0.2,0.5,0.5
						C195.8,278.9,195.5,279.1,195.3,279.1z M183.2,279.1h-4c-0.3,0-0.5-0.2-0.5-0.5c0-0.3,0.2-0.5,0.5-0.5h4c0.3,0,0.5,0.2,0.5,0.5
						C183.7,278.9,183.5,279.1,183.2,279.1z M171.2,279.1h-4c-0.3,0-0.5-0.2-0.5-0.5c0-0.3,0.2-0.5,0.5-0.5h4c0.3,0,0.5,0.2,0.5,0.5
						C171.7,278.9,171.5,279.1,171.2,279.1z M159.1,279.1h-4c-0.3,0-0.5-0.2-0.5-0.5c0-0.3,0.2-0.5,0.5-0.5h4c0.3,0,0.5,0.2,0.5,0.5
						C159.6,278.9,159.4,279.1,159.1,279.1z M147.1,279.1h-4c-0.3,0-0.5-0.2-0.5-0.5c0-0.3,0.2-0.5,0.5-0.5h4c0.3,0,0.5,0.2,0.5,0.5
						C147.6,278.9,147.4,279.1,147.1,279.1z M135,279.1h-4c-0.3,0-0.5-0.2-0.5-0.5c0-0.3,0.2-0.5,0.5-0.5h4c0.3,0,0.5,0.2,0.5,0.5
						C135.5,278.9,135.3,279.1,135,279.1z"/>
				</g>
				<g>
					<path class="st4" d="M349.8,281.1c-0.3,0-0.5-0.2-0.5-0.5v-1.5h-1.5c-0.3,0-0.5-0.2-0.5-0.5c0-0.3,0.2-0.5,0.5-0.5h2.5v2.5
						C350.3,280.9,350.1,281.1,349.8,281.1z"/>
				</g>
				<g>
					<path class="st4" d="M349.8,321.6c-0.3,0-0.5-0.2-0.5-0.5v-4.5c0-0.3,0.2-0.5,0.5-0.5c0.3,0,0.5,0.2,0.5,0.5v4.5
						C350.3,321.4,350.1,321.6,349.8,321.6z M349.8,308.1c-0.3,0-0.5-0.2-0.5-0.5v-4.5c0-0.3,0.2-0.5,0.5-0.5c0.3,0,0.5,0.2,0.5,0.5
						v4.5C350.3,307.9,350.1,308.1,349.8,308.1z M349.8,294.6c-0.3,0-0.5-0.2-0.5-0.5v-4.5c0-0.3,0.2-0.5,0.5-0.5
						c0.3,0,0.5,0.2,0.5,0.5v4.5C350.3,294.4,350.1,294.6,349.8,294.6z"/>
				</g>
			</g>
			<g>
				<g>
					<path class="st4" d="M350.3,248.2h-2.5c-0.3,0-0.5-0.2-0.5-0.5s0.2-0.5,0.5-0.5h1.5v-1.5c0-0.3,0.2-0.5,0.5-0.5
						c0.3,0,0.5,0.2,0.5,0.5V248.2z"/>
				</g>
				<g>
					<path class="st4" d="M339.8,248.2h-4c-0.3,0-0.5-0.2-0.5-0.5s0.2-0.5,0.5-0.5h4c0.3,0,0.5,0.2,0.5,0.5S340.1,248.2,339.8,248.2
						z M327.8,248.2h-4c-0.3,0-0.5-0.2-0.5-0.5s0.2-0.5,0.5-0.5h4c0.3,0,0.5,0.2,0.5,0.5S328,248.2,327.8,248.2z M315.7,248.2h-4
						c-0.3,0-0.5-0.2-0.5-0.5s0.2-0.5,0.5-0.5h4c0.3,0,0.5,0.2,0.5,0.5S316,248.2,315.7,248.2z M303.7,248.2h-4
						c-0.3,0-0.5-0.2-0.5-0.5s0.2-0.5,0.5-0.5h4c0.3,0,0.5,0.2,0.5,0.5S303.9,248.2,303.7,248.2z M291.6,248.2h-4
						c-0.3,0-0.5-0.2-0.5-0.5s0.2-0.5,0.5-0.5h4c0.3,0,0.5,0.2,0.5,0.5S291.9,248.2,291.6,248.2z M279.6,248.2h-4
						c-0.3,0-0.5-0.2-0.5-0.5s0.2-0.5,0.5-0.5h4c0.3,0,0.5,0.2,0.5,0.5S279.9,248.2,279.6,248.2z M267.5,248.2h-4
						c-0.3,0-0.5-0.2-0.5-0.5s0.2-0.5,0.5-0.5h4c0.3,0,0.5,0.2,0.5,0.5S267.8,248.2,267.5,248.2z M255.5,248.2h-4
						c-0.3,0-0.5-0.2-0.5-0.5s0.2-0.5,0.5-0.5h4c0.3,0,0.5,0.2,0.5,0.5S255.8,248.2,255.5,248.2z M243.4,248.2h-4
						c-0.3,0-0.5-0.2-0.5-0.5s0.2-0.5,0.5-0.5h4c0.3,0,0.5,0.2,0.5,0.5S243.7,248.2,243.4,248.2z M231.4,248.2h-4
						c-0.3,0-0.5-0.2-0.5-0.5s0.2-0.5,0.5-0.5h4c0.3,0,0.5,0.2,0.5,0.5S231.7,248.2,231.4,248.2z M219.4,248.2h-4
						c-0.3,0-0.5-0.2-0.5-0.5s0.2-0.5,0.5-0.5h4c0.3,0,0.5,0.2,0.5,0.5S219.6,248.2,219.4,248.2z M207.3,248.2h-4
						c-0.3,0-0.5-0.2-0.5-0.5s0.2-0.5,0.5-0.5h4c0.3,0,0.5,0.2,0.5,0.5S207.6,248.2,207.3,248.2z M195.3,248.2h-4
						c-0.3,0-0.5-0.2-0.5-0.5s0.2-0.5,0.5-0.5h4c0.3,0,0.5,0.2,0.5,0.5S195.5,248.2,195.3,248.2z M183.2,248.2h-4
						c-0.3,0-0.5-0.2-0.5-0.5s0.2-0.5,0.5-0.5h4c0.3,0,0.5,0.2,0.5,0.5S183.5,248.2,183.2,248.2z M171.2,248.2h-4
						c-0.3,0-0.5-0.2-0.5-0.5s0.2-0.5,0.5-0.5h4c0.3,0,0.5,0.2,0.5,0.5S171.5,248.2,171.2,248.2z M159.1,248.2h-4
						c-0.3,0-0.5-0.2-0.5-0.5s0.2-0.5,0.5-0.5h4c0.3,0,0.5,0.2,0.5,0.5S159.4,248.2,159.1,248.2z M147.1,248.2h-4
						c-0.3,0-0.5-0.2-0.5-0.5s0.2-0.5,0.5-0.5h4c0.3,0,0.5,0.2,0.5,0.5S147.4,248.2,147.1,248.2z M135,248.2h-4
						c-0.3,0-0.5-0.2-0.5-0.5s0.2-0.5,0.5-0.5h4c0.3,0,0.5,0.2,0.5,0.5S135.3,248.2,135,248.2z"/>
				</g>
				<g>
					<path class="st4" d="M123,248.2h-2.5v-2.5c0-0.3,0.2-0.5,0.5-0.5s0.5,0.2,0.5,0.5v1.5h1.5c0.3,0,0.5,0.2,0.5,0.5
						S123.3,248.2,123,248.2z"/>
				</g>
				<g>
					<path class="st4" d="M121,237.2c-0.3,0-0.5-0.2-0.5-0.5v-4.5c0-0.3,0.2-0.5,0.5-0.5s0.5,0.2,0.5,0.5v4.5
						C121.5,236.9,121.3,237.2,121,237.2z M121,223.7c-0.3,0-0.5-0.2-0.5-0.5v-4.5c0-0.3,0.2-0.5,0.5-0.5s0.5,0.2,0.5,0.5v4.5
						C121.5,223.4,121.3,223.7,121,223.7z M121,210.2c-0.3,0-0.5-0.2-0.5-0.5v-4.5c0-0.3,0.2-0.5,0.5-0.5s0.5,0.2,0.5,0.5v4.5
						C121.5,209.9,121.3,210.2,121,210.2z"/>
				</g>
				<g>
					<path class="st4" d="M121,196.7c-0.3,0-0.5-0.2-0.5-0.5v-2.5h2.5c0.3,0,0.5,0.2,0.5,0.5c0,0.3-0.2,0.5-0.5,0.5h-1.5v1.5
						C121.5,196.4,121.3,196.7,121,196.7z"/>
				</g>
				<g>
					<path class="st4" d="M339.8,194.7h-4c-0.3,0-0.5-0.2-0.5-0.5c0-0.3,0.2-0.5,0.5-0.5h4c0.3,0,0.5,0.2,0.5,0.5
						C340.3,194.4,340.1,194.7,339.8,194.7z M327.8,194.7h-4c-0.3,0-0.5-0.2-0.5-0.5c0-0.3,0.2-0.5,0.5-0.5h4c0.3,0,0.5,0.2,0.5,0.5
						C328.3,194.4,328,194.7,327.8,194.7z M315.7,194.7h-4c-0.3,0-0.5-0.2-0.5-0.5c0-0.3,0.2-0.5,0.5-0.5h4c0.3,0,0.5,0.2,0.5,0.5
						C316.2,194.4,316,194.7,315.7,194.7z M303.7,194.7h-4c-0.3,0-0.5-0.2-0.5-0.5c0-0.3,0.2-0.5,0.5-0.5h4c0.3,0,0.5,0.2,0.5,0.5
						C304.2,194.4,303.9,194.7,303.7,194.7z M291.6,194.7h-4c-0.3,0-0.5-0.2-0.5-0.5c0-0.3,0.2-0.5,0.5-0.5h4c0.3,0,0.5,0.2,0.5,0.5
						C292.1,194.4,291.9,194.7,291.6,194.7z M279.6,194.7h-4c-0.3,0-0.5-0.2-0.5-0.5c0-0.3,0.2-0.5,0.5-0.5h4c0.3,0,0.5,0.2,0.5,0.5
						C280.1,194.4,279.9,194.7,279.6,194.7z M267.5,194.7h-4c-0.3,0-0.5-0.2-0.5-0.5c0-0.3,0.2-0.5,0.5-0.5h4c0.3,0,0.5,0.2,0.5,0.5
						C268,194.4,267.8,194.7,267.5,194.7z M255.5,194.7h-4c-0.3,0-0.5-0.2-0.5-0.5c0-0.3,0.2-0.5,0.5-0.5h4c0.3,0,0.5,0.2,0.5,0.5
						C256,194.4,255.8,194.7,255.5,194.7z M243.4,194.7h-4c-0.3,0-0.5-0.2-0.5-0.5c0-0.3,0.2-0.5,0.5-0.5h4c0.3,0,0.5,0.2,0.5,0.5
						C243.9,194.4,243.7,194.7,243.4,194.7z M231.4,194.7h-4c-0.3,0-0.5-0.2-0.5-0.5c0-0.3,0.2-0.5,0.5-0.5h4c0.3,0,0.5,0.2,0.5,0.5
						C231.9,194.4,231.7,194.7,231.4,194.7z M219.4,194.7h-4c-0.3,0-0.5-0.2-0.5-0.5c0-0.3,0.2-0.5,0.5-0.5h4c0.3,0,0.5,0.2,0.5,0.5
						C219.9,194.4,219.6,194.7,219.4,194.7z M207.3,194.7h-4c-0.3,0-0.5-0.2-0.5-0.5c0-0.3,0.2-0.5,0.5-0.5h4c0.3,0,0.5,0.2,0.5,0.5
						C207.8,194.4,207.6,194.7,207.3,194.7z M195.3,194.7h-4c-0.3,0-0.5-0.2-0.5-0.5c0-0.3,0.2-0.5,0.5-0.5h4c0.3,0,0.5,0.2,0.5,0.5
						C195.8,194.4,195.5,194.7,195.3,194.7z M183.2,194.7h-4c-0.3,0-0.5-0.2-0.5-0.5c0-0.3,0.2-0.5,0.5-0.5h4c0.3,0,0.5,0.2,0.5,0.5
						C183.7,194.4,183.5,194.7,183.2,194.7z M171.2,194.7h-4c-0.3,0-0.5-0.2-0.5-0.5c0-0.3,0.2-0.5,0.5-0.5h4c0.3,0,0.5,0.2,0.5,0.5
						C171.7,194.4,171.5,194.7,171.2,194.7z M159.1,194.7h-4c-0.3,0-0.5-0.2-0.5-0.5c0-0.3,0.2-0.5,0.5-0.5h4c0.3,0,0.5,0.2,0.5,0.5
						C159.6,194.4,159.4,194.7,159.1,194.7z M147.1,194.7h-4c-0.3,0-0.5-0.2-0.5-0.5c0-0.3,0.2-0.5,0.5-0.5h4c0.3,0,0.5,0.2,0.5,0.5
						C147.6,194.4,147.4,194.7,147.1,194.7z M135,194.7h-4c-0.3,0-0.5-0.2-0.5-0.5c0-0.3,0.2-0.5,0.5-0.5h4c0.3,0,0.5,0.2,0.5,0.5
						C135.5,194.4,135.3,194.7,135,194.7z"/>
				</g>
				<g>
					<path class="st4" d="M349.8,196.7c-0.3,0-0.5-0.2-0.5-0.5v-1.5h-1.5c-0.3,0-0.5-0.2-0.5-0.5c0-0.3,0.2-0.5,0.5-0.5h2.5v2.5
						C350.3,196.4,350.1,196.7,349.8,196.7z"/>
				</g>
				<g>
					<path class="st4" d="M349.8,237.2c-0.3,0-0.5-0.2-0.5-0.5v-4.5c0-0.3,0.2-0.5,0.5-0.5c0.3,0,0.5,0.2,0.5,0.5v4.5
						C350.3,236.9,350.1,237.2,349.8,237.2z M349.8,223.7c-0.3,0-0.5-0.2-0.5-0.5v-4.5c0-0.3,0.2-0.5,0.5-0.5c0.3,0,0.5,0.2,0.5,0.5
						v4.5C350.3,223.4,350.1,223.7,349.8,223.7z M349.8,210.2c-0.3,0-0.5-0.2-0.5-0.5v-4.5c0-0.3,0.2-0.5,0.5-0.5
						c0.3,0,0.5,0.2,0.5,0.5v4.5C350.3,209.9,350.1,210.2,349.8,210.2z"/>
				</g>
			</g>
			<g>
				<g>
					<path class="st4" d="M350.3,163.7h-2.5c-0.3,0-0.5-0.2-0.5-0.5s0.2-0.5,0.5-0.5h1.5v-1.5c0-0.3,0.2-0.5,0.5-0.5
						c0.3,0,0.5,0.2,0.5,0.5V163.7z"/>
				</g>
				<g>
					<path class="st4" d="M339.8,163.7h-4c-0.3,0-0.5-0.2-0.5-0.5s0.2-0.5,0.5-0.5h4c0.3,0,0.5,0.2,0.5,0.5S340.1,163.7,339.8,163.7
						z M327.8,163.7h-4c-0.3,0-0.5-0.2-0.5-0.5s0.2-0.5,0.5-0.5h4c0.3,0,0.5,0.2,0.5,0.5S328,163.7,327.8,163.7z M315.7,163.7h-4
						c-0.3,0-0.5-0.2-0.5-0.5s0.2-0.5,0.5-0.5h4c0.3,0,0.5,0.2,0.5,0.5S316,163.7,315.7,163.7z M303.7,163.7h-4
						c-0.3,0-0.5-0.2-0.5-0.5s0.2-0.5,0.5-0.5h4c0.3,0,0.5,0.2,0.5,0.5S303.9,163.7,303.7,163.7z M291.6,163.7h-4
						c-0.3,0-0.5-0.2-0.5-0.5s0.2-0.5,0.5-0.5h4c0.3,0,0.5,0.2,0.5,0.5S291.9,163.7,291.6,163.7z M279.6,163.7h-4
						c-0.3,0-0.5-0.2-0.5-0.5s0.2-0.5,0.5-0.5h4c0.3,0,0.5,0.2,0.5,0.5S279.9,163.7,279.6,163.7z M267.5,163.7h-4
						c-0.3,0-0.5-0.2-0.5-0.5s0.2-0.5,0.5-0.5h4c0.3,0,0.5,0.2,0.5,0.5S267.8,163.7,267.5,163.7z M255.5,163.7h-4
						c-0.3,0-0.5-0.2-0.5-0.5s0.2-0.5,0.5-0.5h4c0.3,0,0.5,0.2,0.5,0.5S255.8,163.7,255.5,163.7z M243.4,163.7h-4
						c-0.3,0-0.5-0.2-0.5-0.5s0.2-0.5,0.5-0.5h4c0.3,0,0.5,0.2,0.5,0.5S243.7,163.7,243.4,163.7z M231.4,163.7h-4
						c-0.3,0-0.5-0.2-0.5-0.5s0.2-0.5,0.5-0.5h4c0.3,0,0.5,0.2,0.5,0.5S231.7,163.7,231.4,163.7z M219.4,163.7h-4
						c-0.3,0-0.5-0.2-0.5-0.5s0.2-0.5,0.5-0.5h4c0.3,0,0.5,0.2,0.5,0.5S219.6,163.7,219.4,163.7z M207.3,163.7h-4
						c-0.3,0-0.5-0.2-0.5-0.5s0.2-0.5,0.5-0.5h4c0.3,0,0.5,0.2,0.5,0.5S207.6,163.7,207.3,163.7z M195.3,163.7h-4
						c-0.3,0-0.5-0.2-0.5-0.5s0.2-0.5,0.5-0.5h4c0.3,0,0.5,0.2,0.5,0.5S195.5,163.7,195.3,163.7z M183.2,163.7h-4
						c-0.3,0-0.5-0.2-0.5-0.5s0.2-0.5,0.5-0.5h4c0.3,0,0.5,0.2,0.5,0.5S183.5,163.7,183.2,163.7z M171.2,163.7h-4
						c-0.3,0-0.5-0.2-0.5-0.5s0.2-0.5,0.5-0.5h4c0.3,0,0.5,0.2,0.5,0.5S171.5,163.7,171.2,163.7z M159.1,163.7h-4
						c-0.3,0-0.5-0.2-0.5-0.5s0.2-0.5,0.5-0.5h4c0.3,0,0.5,0.2,0.5,0.5S159.4,163.7,159.1,163.7z M147.1,163.7h-4
						c-0.3,0-0.5-0.2-0.5-0.5s0.2-0.5,0.5-0.5h4c0.3,0,0.5,0.2,0.5,0.5S147.4,163.7,147.1,163.7z M135,163.7h-4
						c-0.3,0-0.5-0.2-0.5-0.5s0.2-0.5,0.5-0.5h4c0.3,0,0.5,0.2,0.5,0.5S135.3,163.7,135,163.7z"/>
				</g>
				<g>
					<path class="st4" d="M123,163.7h-2.5v-2.5c0-0.3,0.2-0.5,0.5-0.5s0.5,0.2,0.5,0.5v1.5h1.5c0.3,0,0.5,0.2,0.5,0.5
						S123.3,163.7,123,163.7z"/>
				</g>
				<g>
					<path class="st4" d="M121,152.7c-0.3,0-0.5-0.2-0.5-0.5v-4.5c0-0.3,0.2-0.5,0.5-0.5s0.5,0.2,0.5,0.5v4.5
						C121.5,152.5,121.3,152.7,121,152.7z M121,139.2c-0.3,0-0.5-0.2-0.5-0.5v-4.5c0-0.3,0.2-0.5,0.5-0.5s0.5,0.2,0.5,0.5v4.5
						C121.5,139,121.3,139.2,121,139.2z M121,125.7c-0.3,0-0.5-0.2-0.5-0.5v-4.5c0-0.3,0.2-0.5,0.5-0.5s0.5,0.2,0.5,0.5v4.5
						C121.5,125.5,121.3,125.7,121,125.7z"/>
				</g>
				<g>
					<path class="st4" d="M121,112.2c-0.3,0-0.5-0.2-0.5-0.5v-2.5h2.5c0.3,0,0.5,0.2,0.5,0.5c0,0.3-0.2,0.5-0.5,0.5h-1.5v1.5
						C121.5,112,121.3,112.2,121,112.2z"/>
				</g>
				<g>
					<path class="st4" d="M339.8,110.2h-4c-0.3,0-0.5-0.2-0.5-0.5c0-0.3,0.2-0.5,0.5-0.5h4c0.3,0,0.5,0.2,0.5,0.5
						C340.3,110,340.1,110.2,339.8,110.2z M327.8,110.2h-4c-0.3,0-0.5-0.2-0.5-0.5c0-0.3,0.2-0.5,0.5-0.5h4c0.3,0,0.5,0.2,0.5,0.5
						C328.3,110,328,110.2,327.8,110.2z M315.7,110.2h-4c-0.3,0-0.5-0.2-0.5-0.5c0-0.3,0.2-0.5,0.5-0.5h4c0.3,0,0.5,0.2,0.5,0.5
						C316.2,110,316,110.2,315.7,110.2z M303.7,110.2h-4c-0.3,0-0.5-0.2-0.5-0.5c0-0.3,0.2-0.5,0.5-0.5h4c0.3,0,0.5,0.2,0.5,0.5
						C304.2,110,303.9,110.2,303.7,110.2z M291.6,110.2h-4c-0.3,0-0.5-0.2-0.5-0.5c0-0.3,0.2-0.5,0.5-0.5h4c0.3,0,0.5,0.2,0.5,0.5
						C292.1,110,291.9,110.2,291.6,110.2z M279.6,110.2h-4c-0.3,0-0.5-0.2-0.5-0.5c0-0.3,0.2-0.5,0.5-0.5h4c0.3,0,0.5,0.2,0.5,0.5
						C280.1,110,279.9,110.2,279.6,110.2z M267.5,110.2h-4c-0.3,0-0.5-0.2-0.5-0.5c0-0.3,0.2-0.5,0.5-0.5h4c0.3,0,0.5,0.2,0.5,0.5
						C268,110,267.8,110.2,267.5,110.2z M255.5,110.2h-4c-0.3,0-0.5-0.2-0.5-0.5c0-0.3,0.2-0.5,0.5-0.5h4c0.3,0,0.5,0.2,0.5,0.5
						C256,110,255.8,110.2,255.5,110.2z M243.4,110.2h-4c-0.3,0-0.5-0.2-0.5-0.5c0-0.3,0.2-0.5,0.5-0.5h4c0.3,0,0.5,0.2,0.5,0.5
						C243.9,110,243.7,110.2,243.4,110.2z M231.4,110.2h-4c-0.3,0-0.5-0.2-0.5-0.5c0-0.3,0.2-0.5,0.5-0.5h4c0.3,0,0.5,0.2,0.5,0.5
						C231.9,110,231.7,110.2,231.4,110.2z M219.4,110.2h-4c-0.3,0-0.5-0.2-0.5-0.5c0-0.3,0.2-0.5,0.5-0.5h4c0.3,0,0.5,0.2,0.5,0.5
						C219.9,110,219.6,110.2,219.4,110.2z M207.3,110.2h-4c-0.3,0-0.5-0.2-0.5-0.5c0-0.3,0.2-0.5,0.5-0.5h4c0.3,0,0.5,0.2,0.5,0.5
						C207.8,110,207.6,110.2,207.3,110.2z M195.3,110.2h-4c-0.3,0-0.5-0.2-0.5-0.5c0-0.3,0.2-0.5,0.5-0.5h4c0.3,0,0.5,0.2,0.5,0.5
						C195.8,110,195.5,110.2,195.3,110.2z M183.2,110.2h-4c-0.3,0-0.5-0.2-0.5-0.5c0-0.3,0.2-0.5,0.5-0.5h4c0.3,0,0.5,0.2,0.5,0.5
						C183.7,110,183.5,110.2,183.2,110.2z M171.2,110.2h-4c-0.3,0-0.5-0.2-0.5-0.5c0-0.3,0.2-0.5,0.5-0.5h4c0.3,0,0.5,0.2,0.5,0.5
						C171.7,110,171.5,110.2,171.2,110.2z M159.1,110.2h-4c-0.3,0-0.5-0.2-0.5-0.5c0-0.3,0.2-0.5,0.5-0.5h4c0.3,0,0.5,0.2,0.5,0.5
						C159.6,110,159.4,110.2,159.1,110.2z M147.1,110.2h-4c-0.3,0-0.5-0.2-0.5-0.5c0-0.3,0.2-0.5,0.5-0.5h4c0.3,0,0.5,0.2,0.5,0.5
						C147.6,110,147.4,110.2,147.1,110.2z M135,110.2h-4c-0.3,0-0.5-0.2-0.5-0.5c0-0.3,0.2-0.5,0.5-0.5h4c0.3,0,0.5,0.2,0.5,0.5
						C135.5,110,135.3,110.2,135,110.2z"/>
				</g>
				<g>
					<path class="st4" d="M349.8,112.2c-0.3,0-0.5-0.2-0.5-0.5v-1.5h-1.5c-0.3,0-0.5-0.2-0.5-0.5c0-0.3,0.2-0.5,0.5-0.5h2.5v2.5
						C350.3,112,350.1,112.2,349.8,112.2z"/>
				</g>
				<g>
					<path class="st4" d="M349.8,152.7c-0.3,0-0.5-0.2-0.5-0.5v-4.5c0-0.3,0.2-0.5,0.5-0.5c0.3,0,0.5,0.2,0.5,0.5v4.5
						C350.3,152.5,350.1,152.7,349.8,152.7z M349.8,139.2c-0.3,0-0.5-0.2-0.5-0.5v-4.5c0-0.3,0.2-0.5,0.5-0.5c0.3,0,0.5,0.2,0.5,0.5
						v4.5C350.3,139,350.1,139.2,349.8,139.2z M349.8,125.7c-0.3,0-0.5-0.2-0.5-0.5v-4.5c0-0.3,0.2-0.5,0.5-0.5
						c0.3,0,0.5,0.2,0.5,0.5v4.5C350.3,125.5,350.1,125.7,349.8,125.7z"/>
				</g>
			</g>
		</g>
		<g>
			<path class="st3" d="M307.3,56H164.9c-2.3,0-4.1-1.8-4.1-4.1l0,0c0-2.3,1.8-4.1,4.1-4.1h142.4c2.3,0,4.1,1.8,4.1,4.1l0,0
				C311.5,54.2,309.6,56,307.3,56z"/>
		</g>
		<g>
			<g>
				<path class="st3" d="M184.8,480.5h-43.9c-2,0-3.5-1.6-3.5-3.5v-4.1c0-2,1.6-3.5,3.5-3.5h43.9c2,0,3.5,1.6,3.5,3.5v4.1
					C188.3,479,186.7,480.5,184.8,480.5z"/>
			</g>
			<g>
				<path class="st3" d="M331.4,480.5h-43.9c-2,0-3.5-1.6-3.5-3.5v-4.1c0-2,1.6-3.5,3.5-3.5h43.9c2,0,3.5,1.6,3.5,3.5v4.1
					C334.9,479,333.3,480.5,331.4,480.5z"/>
			</g>
		</g>
		<g>
			<g>
				<g>
					<rect x="183.3" y="108.1" class="st1" width="176.4" height="53.5"/>
				</g>
				<g>
					<g>
						<rect x="172.5" y="94.4" class="st4" width="228.8" height="53.5"/>
					</g>
					<g>
						<rect x="188.3" y="105.8" class="st1" width="30.6" height="30.6"/>
					</g>
					<g>
						<rect x="231.6" y="105.8" class="st1" width="158.1" height="6"/>
					</g>
					<g>
						<rect x="231.6" y="130.4" class="st1" width="158.1" height="6"/>
					</g>
				</g>
			</g>
		</g>
		<g>
			<g>
				<rect x="77.6" y="188.8" class="st4" width="228.8" height="53.5"/>
			</g>
			<g>
				<rect x="93.4" y="200.2" class="st1" width="30.6" height="30.6"/>
			</g>
			<g>
				<rect x="136.7" y="200.2" class="st1" width="158.1" height="6"/>
			</g>
			<g>
				<rect x="136.7" y="224.8" class="st1" width="158.1" height="6"/>
			</g>
		</g>
		<g>
			<path class="st4" d="M214.3,423.8v-8.4h0.9v7.6h2.4v0.9H214.3z"/>
			<path class="st4" d="M220.8,417.4c0-1.3,0.6-2.1,1.9-2.1c1.3,0,1.9,0.8,1.9,2.1v4.4c0,1.3-0.6,2.1-1.9,2.1
				c-1.3,0-1.9-0.8-1.9-2.1V417.4z M221.7,421.8c0,0.8,0.3,1.2,1,1.2c0.7,0,1-0.4,1-1.2v-4.5c0-0.8-0.3-1.2-1-1.2
				c-0.7,0-1,0.5-1,1.2V421.8z"/>
			<path class="st4" d="M228.9,422.1l-0.3,1.7h-0.9l1.6-8.4h1.4l1.6,8.4h-0.9l-0.3-1.7H228.9z M229,421.3h1.9l-1-4.9L229,421.3z"/>
			<path class="st4" d="M237.4,415.3c1.3,0,1.9,0.8,1.9,2.1v4.3c0,1.3-0.6,2.1-1.9,2.1h-2v-8.4H237.4z M237.4,422.9
				c0.7,0,1-0.4,1-1.2v-4.3c0-0.8-0.3-1.2-1-1.2h-1v6.7H237.4z"/>
			<path class="st4" d="M243.5,415.3v8.4h-0.9v-8.4H243.5z"/>
			<path class="st4" d="M247.7,423.8h-0.8v-8.4h1.2l2,6.1v-6.1h0.8v8.4h-1l-2.2-6.8V423.8z"/>
			<path class="st4" d="M258,417.4v0.7h-0.9v-0.8c0-0.8-0.3-1.2-1-1.2c-0.7,0-1,0.5-1,1.2v4.5c0,0.8,0.3,1.2,1,1.2
				c0.7,0,1-0.5,1-1.2v-1.7h-0.9v-0.8h1.8v2.5c0,1.3-0.6,2.1-1.9,2.1c-1.3,0-1.9-0.8-1.9-2.1v-4.4c0-1.3,0.6-2.1,1.9-2.1
				C257.4,415.2,258,416.1,258,417.4z"/>
		</g>
		<g>
			<g>
				<g>
					<path class="st4" d="M238.5,360.8c1.1,0,2-0.9,2-2s-0.9-2-2-2c-1.1,0-2,0.9-2,2S237.4,360.8,238.5,360.8z"/>
				</g>
				<g>
					<path class="st5" d="M238.5,395.2c-1.1,0-2,0.9-2,2c0,1.1,0.9,2,2,2c1.1,0,2-0.9,2-2C240.4,396.1,239.5,395.2,238.5,395.2z"/>
				</g>
			</g>
			<g>
				<g>
					<path class="st6" d="M232.6,361.8c1-0.4,1.5-1.5,1.2-2.5c-0.4-1-1.5-1.5-2.5-1.2c-1,0.4-1.5,1.5-1.2,2.5
						C230.4,361.7,231.6,362.2,232.6,361.8z"/>
				</g>
				<g>
					<path class="st5" d="M244.3,394.2c-1,0.4-1.5,1.5-1.2,2.5c0.4,1,1.5,1.5,2.5,1.2c1-0.4,1.5-1.5,1.2-2.5
						C246.5,394.3,245.4,393.8,244.3,394.2z"/>
				</g>
			</g>
			<g>
				<g>
					<path class="st7" d="M227.4,364.8c0.8-0.7,0.9-1.9,0.2-2.8c-0.7-0.8-1.9-0.9-2.8-0.2c-0.8,0.7-0.9,1.9-0.2,2.8
						C225.3,365.4,226.6,365.5,227.4,364.8z"/>
				</g>
				<g>
					<path class="st5" d="M249.5,391.2c-0.8,0.7-0.9,1.9-0.2,2.8s1.9,0.9,2.8,0.2c0.8-0.7,0.9-1.9,0.2-2.8
						C251.6,390.6,250.3,390.5,249.5,391.2z"/>
				</g>
			</g>
			<g>
				<g>
					<path class="st8" d="M223.5,369.4c0.5-0.9,0.2-2.1-0.7-2.7c-0.9-0.5-2.1-0.2-2.7,0.7c-0.5,0.9-0.2,2.1,0.7,2.7
						C221.8,370.6,223,370.3,223.5,369.4z"/>
				</g>
				<g>
					<path class="st5" d="M253.4,386.6c-0.5,0.9-0.2,2.1,0.7,2.7c0.9,0.5,2.1,0.2,2.7-0.7c0.5-0.9,0.2-2.1-0.7-2.7
						C255.1,385.3,253.9,385.7,253.4,386.6z"/>
				</g>
			</g>
			<g>
				<g>
					<path class="st5" d="M221.5,375c0.2-1.1-0.5-2.1-1.6-2.3c-1.1-0.2-2.1,0.5-2.3,1.6c-0.2,1.1,0.5,2.1,1.6,2.3
						C220.3,376.8,221.3,376.1,221.5,375z"/>
				</g>
				<g>
					<path class="st5" d="M255.4,381c-0.2,1.1,0.5,2.1,1.6,2.3c1.1,0.2,2.1-0.5,2.3-1.6c0.2-1.1-0.5-2.1-1.6-2.3
						C256.6,379.2,255.6,379.9,255.4,381z"/>
				</g>
			</g>
			<g>
				<g>
					<path class="st5" d="M221.5,381c-0.2-1.1-1.2-1.8-2.3-1.6c-1.1,0.2-1.8,1.2-1.6,2.3c0.2,1.1,1.2,1.8,2.3,1.6
						C221,383.1,221.7,382,221.5,381z"/>
				</g>
				<g>
					<path class="st5" d="M255.4,375c0.2,1.1,1.2,1.8,2.3,1.6c1.1-0.2,1.8-1.2,1.6-2.3c-0.2-1.1-1.2-1.8-2.3-1.6
						C255.9,372.9,255.2,373.9,255.4,375z"/>
				</g>
			</g>
			<g>
				<g>
					<path class="st5" d="M223.5,386.6c-0.5-0.9-1.7-1.3-2.7-0.7c-0.9,0.5-1.3,1.7-0.7,2.7c0.5,0.9,1.7,1.3,2.7,0.7
						C223.8,388.7,224.1,387.5,223.5,386.6z"/>
				</g>
				<g>
					<path class="st5" d="M253.4,369.4c0.5,0.9,1.7,1.3,2.7,0.7c0.9-0.5,1.3-1.7,0.7-2.7c-0.5-0.9-1.7-1.3-2.7-0.7
						C253.1,367.2,252.8,368.4,253.4,369.4z"/>
				</g>
			</g>
			<g>
				<g>
					<path class="st5" d="M227.4,391.2c-0.8-0.7-2.1-0.6-2.8,0.2c-0.7,0.8-0.6,2.1,0.2,2.8c0.8,0.7,2.1,0.6,2.8-0.2
						C228.3,393.1,228.2,391.9,227.4,391.2z"/>
				</g>
				<g>
					<path class="st5" d="M249.5,364.8c0.8,0.7,2.1,0.6,2.8-0.2c0.7-0.8,0.6-2.1-0.2-2.8c-0.8-0.7-2.1-0.6-2.8,0.2
						S248.7,364.1,249.5,364.8z"/>
				</g>
			</g>
			<g>
				<g>
					<path class="st5" d="M232.6,394.2c-1-0.4-2.1,0.2-2.5,1.2c-0.4,1,0.2,2.1,1.2,2.5c1,0.4,2.1-0.2,2.5-1.2
						C234.1,395.7,233.6,394.5,232.6,394.2z"/>
				</g>
				<g>
					<path class="st5" d="M244.3,361.8c1,0.4,2.1-0.2,2.5-1.2c0.4-1-0.2-2.1-1.2-2.5c-1-0.4-2.1,0.2-2.5,1.2
						C242.8,360.3,243.3,361.4,244.3,361.8z"/>
				</g>
			</g>
		</g>
	</g>
</g>
<g id="DESIGNED_BY_FREEPIK">
</g>
</svg>
